<?xml version="1.0" encoding="UTF-8" standalone="no"?>
<svg
   xmlns:dc="http://purl.org/dc/elements/1.1/"
   xmlns:cc="http://creativecommons.org/ns#"
   xmlns:rdf="http://www.w3.org/1999/02/22-rdf-syntax-ns#"
   xmlns:svg="http://www.w3.org/2000/svg"
   xmlns="http://www.w3.org/2000/svg"
   xmlns:sodipodi="http://sodipodi.sourceforge.net/DTD/sodipodi-0.dtd"
   xmlns:inkscape="http://www.inkscape.org/namespaces/inkscape"
   width="1600pt"
   height="1000pt"
   viewBox="0 0 1600 1000"
   version="1.1"
   id="svg7199"
   inkscape:version="0.91 r13725"
   sodipodi:docname="Ebrd_logo.svg">
  <metadata
     id="metadata7303">
    <rdf:RDF>
      <cc:Work
         rdf:about="">
        <dc:format>image/svg+xml</dc:format>
        <dc:type
           rdf:resource="http://purl.org/dc/dcmitype/StillImage" />
        <dc:title></dc:title>
      </cc:Work>
    </rdf:RDF>
  </metadata>
  <defs
     id="defs7301" />
  <sodipodi:namedview
     pagecolor="#ffffff"
     bordercolor="#666666"
     borderopacity="1"
     objecttolerance="10"
     gridtolerance="10"
     guidetolerance="10"
     inkscape:pageopacity="0"
     inkscape:pageshadow="2"
     inkscape:window-width="1319"
     inkscape:window-height="744"
     id="namedview7299"
     showgrid="false"
     inkscape:zoom="0.26121356"
     inkscape:cx="1022.1539"
     inkscape:cy="471.73383"
     inkscape:window-x="47"
     inkscape:window-y="24"
     inkscape:window-maximized="1"
     inkscape:current-layer="text3423"
     fit-margin-top="0"
     fit-margin-left="0"
     fit-margin-right="0"
     fit-margin-bottom="0" />
  <path
     d="M 676.31979,130.54215 C 713.07156,109.94138 754.35549,95.026431 796.95786,95.273641 838.3242,95.768061 877.7953,111.25983 913.311,131.44858 867.9893,119.58254 815.2513,117.68727 777.92276,150.8133 698.3214,223.74 689.6691,353.19523 739.93497,444.99221 c 42.60236,-34.52687 42.84958,-94.35148 46.31052,-144.37014 2.55447,-53.56199 33.29081,-108.11282 85.12231,-127.39514 37.0814,-16.72782 79.2718,2.06008 105.2287,29.82991 59.2479,67.15851 62.4615,179.39144 0.7417,246.05555 -27.9347,30.40673 -73.3388,37.98779 -111.1618,22.74323 -14.5029,16.64542 -29.253,32.96122 -44.168,49.27704 30.7363,9.39394 62.7911,8.40511 93.8571,1.81286 -46.8874,26.8634 -102.6742,44.16809 -156.81304,32.63159 -31.23075,-5.27381 -59.9894,-19.1175 -86.85283,-35.51571 34.19727,9.14676 71.77307,16.4806 105.55833,1.56569 48.94744,-20.18877 78.69494,-69.05378 93.60984,-117.83639 17.3047,-64.4392 17.7167,-140.57961 -25.8745,-195.13045 -35.9277,38.81183 -39.30626,92.70344 -42.93203,142.72209 -1.81285,45.56891 -23.81445,90.89058 -59.82461,119.15482 -33.95008,25.46256 -83.63911,18.21109 -114.45785,-8.89952 -78.85974,-64.76878 -80.8374,-200.23944 -4.77937,-267.64514 27.4402,-25.70975 68.97134,-30.15952 102.01498,-12.77247 12.69006,-16.97503 27.3578,-32.46681 40.04788,-49.44184 -29.08827,-10.13558 -59.5774,-4.53217 -89.24251,-1.23604 z"
     id="path7203"
     inkscape:connector-curvature="0"
     style="fill:#2b1871" />
  <g
     style="font-style:normal;font-weight:normal;font-size:152.69676208px;line-height:125%;font-family:sans-serif;letter-spacing:0px;word-spacing:0px;fill:#2b1871;fill-opacity:1;stroke:none;stroke-width:1px;stroke-linecap:butt;stroke-linejoin:miter;stroke-opacity:1"
     id="text3423"
     transform="matrix(1.7268852,0,0,1.7268852,345.5343,73.166481)">
    <path
       d="m -26.098311,333.90803 0,24.49184 1.197971,0 q 5.72364,0 8.297059,-3.59391 2.573419,-3.59391 3.283327,-10.60425 l 1.686034,0 0,31.50218 -1.686034,0 q -0.532431,-5.14683 -2.262834,-8.43016 -1.686032,-3.28333 -3.948866,-4.39256 -2.262835,-1.1536 -6.566657,-1.1536 l 0,16.94906 q 0,4.96936 0.399324,6.07859 0.443693,1.10924 1.597295,1.81914 1.153602,0.70991 3.72702,0.70991 l 3.593914,0 q 8.4301763,0 13.4882736,-3.90449 5.1024561,-3.9045 7.3209225,-11.89097 l 1.6416604,0 -2.7065201,19.12316 -52.0008074,0 0,-1.64166 1.996616,0 q 2.617787,0 4.21508,-0.93176 1.153601,-0.62117 1.774772,-2.12972 0.488061,-1.06487 0.488061,-5.59053 l 0,-39.5774 q 0,-4.08197 -0.221845,-5.01373 -0.443693,-1.55292 -1.641663,-2.39594 -1.686032,-1.24234 -4.614405,-1.24234 l -1.996616,0 0,-1.64166 50.359141,0 0,17.79208 -1.68603032,0 q -1.28670968,-6.52228 -3.63827978,-9.36192 -2.3071964,-2.83963 -6.5666559,-4.17071 -2.484684,-0.79865 -9.317555,-0.79865 l -6.211702,0 z"
       style="font-style:normal;font-variant:normal;font-weight:bold;font-stretch:normal;font-size:90.8682785px;font-family:'Times New Roman';-inkscape-font-specification:'Times New Roman, ';fill:#2b1871;fill-opacity:1"
       id="path3390"
       inkscape:connector-curvature="0" />
    <path
       d="m 52.967749,349.1267 0,32.47831 q 0,4.74751 0.88738,5.94548 0.887377,1.1536 3.593898,1.46419 l 0,1.59729 -16.904669,0 0,-5.54616 q -2.972741,3.54954 -5.945493,5.1912 -2.972747,1.5973 -6.655395,1.5973 -3.505171,0 -6.256072,-2.12973 -2.706524,-2.17409 -3.638274,-5.05809 -0.931764,-2.88401 -0.931764,-10.07183 l 0,-16.461 q 0,-4.70314 -0.887377,-5.85675 -0.84302,-1.1536 -3.593911,-1.50855 l 0,-1.64166 16.904685,0 0,28.35196 q 0,4.43693 0.399334,5.72364 0.44369,1.28671 1.33107,1.95225 0.931757,0.66554 2.12972,0.66554 1.597304,0 2.884012,-0.84302 1.774784,-1.1536 4.259465,-4.65877 l 0,-22.18464 q 0,-4.70314 -0.887381,-5.85675 -0.84302,-1.1536 -3.593918,-1.50855 l 0,-1.64166 16.90469,0 z"
       style="font-style:normal;font-variant:normal;font-weight:bold;font-stretch:normal;font-size:90.8682785px;font-family:'Times New Roman';-inkscape-font-specification:'Times New Roman, ';fill:#2b1871;fill-opacity:1"
       id="path3392"
       inkscape:connector-curvature="0" />
    <path
       d="m 80.698497,349.1267 0,9.40628 q 4.126345,-6.43354 7.232207,-8.5189 3.105866,-2.12972 5.989878,-2.12972 2.484692,0 3.948886,1.55292 1.508558,1.50856 1.508558,4.30382 0,2.97274 -1.464188,4.6144 -1.419824,1.64167 -3.460822,1.64167 -2.351582,0 -4.08199,-1.50856 -1.730408,-1.50855 -2.040998,-1.68603 -0.443694,-0.26622 -1.020494,-0.26622 -1.286718,0 -2.440322,0.97613 -1.819141,1.50855 -2.750901,4.30382 -1.419814,4.30382 -1.419814,9.49502 l 0,9.5394 0.0444,2.48468 q 0,2.52905 0.31058,3.23895 0.532434,1.19798 1.552934,1.77478 1.064857,0.53243 3.549549,0.66554 l 0,1.59729 -22.406485,0 0,-1.59729 q 2.706521,-0.22185 3.638268,-1.46419 0.97613,-1.28671 0.97613,-6.69976 l 0,-22.93892 q 0,-3.54954 -0.35496,-4.52566 -0.44369,-1.24234 -1.2867,-1.81914 -0.843017,-0.57681 -2.972738,-0.79865 l 0,-1.64166 16.949052,0 z"
       style="font-style:normal;font-variant:normal;font-weight:bold;font-stretch:normal;font-size:90.8682785px;font-family:'Times New Roman';-inkscape-font-specification:'Times New Roman, ';fill:#2b1871;fill-opacity:1"
       id="path3394"
       inkscape:connector-curvature="0" />
    <path
       d="m 121.82889,347.88436 q 5.41306,0 10.07183,2.79526 4.65877,2.79526 7.05472,7.9421 2.44031,5.14684 2.44031,11.2698 0,8.82948 -4.4813,14.77497 -5.41305,7.18782 -14.95245,7.18782 -9.36192,0 -14.42001,-6.56665 -5.0581,-6.56666 -5.0581,-15.21867 0,-8.91822 5.14684,-15.52924 5.1912,-6.65539 14.19816,-6.65539 z m 0.17748,3.15021 q -2.26283,0 -3.90449,1.73041 -1.5973,1.68603 -2.12973,6.74413 -0.48806,5.01372 -0.48806,13.97632 0,4.74751 0.62117,8.87385 0.48806,3.15022 2.08535,4.79189 1.5973,1.64166 3.63828,1.64166 1.99662,0 3.3277,-1.10923 1.7304,-1.50856 2.3072,-4.21508 0.88739,-4.21509 0.88739,-17.03781 0,-7.54277 -0.84302,-10.33804 -0.84301,-2.83963 -2.48468,-4.12634 -1.1536,-0.93176 -3.01711,-0.93176 z"
       style="font-style:normal;font-variant:normal;font-weight:bold;font-stretch:normal;font-size:90.8682785px;font-family:'Times New Roman';-inkscape-font-specification:'Times New Roman, ';fill:#2b1871;fill-opacity:1"
       id="path3396"
       inkscape:connector-curvature="0" />
    <path
       d="m 163.84659,386.39689 0,15.44051 q 0,3.19458 0.48807,4.34819 0.53243,1.1536 1.59729,1.68603 1.06486,0.53243 4.17071,0.53243 l 0,1.64166 -23.64882,0 0,-1.64166 q 2.75089,-0.0887 4.08197,-1.55293 0.88739,-1.02049 0.88739,-5.27994 l 0,-43.79248 q 0,-4.39255 -1.0205,-5.59052 -1.02049,-1.24234 -3.94886,-1.41982 l 0,-1.64166 17.39275,0 0,5.45742 q 2.1741,-3.19459 4.43693,-4.61441 3.23896,-2.08535 7.05472,-2.08535 4.57003,0 8.29705,2.884 3.77139,2.884 5.72364,7.98647 1.95225,5.0581 1.95225,10.91484 0,6.30044 -2.04099,11.53601 -1.99662,5.19121 -5.85674,7.9421 -3.81576,2.70653 -8.51891,2.70653 -3.41643,0 -6.38917,-1.50856 -2.21847,-1.1536 -4.65878,-3.94886 z m 0,-4.4813 q 3.81576,5.41305 8.16395,5.41305 2.39594,0 3.94887,-2.52905 2.3072,-3.72702 2.3072,-14.19816 0,-10.73737 -2.52905,-14.68624 -1.68603,-2.61778 -4.52567,-2.61778 -4.48129,0 -7.3653,6.47791 l 0,22.14027 z"
       style="font-style:normal;font-variant:normal;font-weight:bold;font-stretch:normal;font-size:90.8682785px;font-family:'Times New Roman';-inkscape-font-specification:'Times New Roman, ';fill:#2b1871;fill-opacity:1"
       id="path3398"
       inkscape:connector-curvature="0" />
    <path
       d="m 233.50636,368.38296 -22.76144,0 q 0.39933,8.25269 4.39256,13.04457 3.06148,3.68265 7.3653,3.68265 2.66216,0 4.83625,-1.46419 2.1741,-1.50855 4.65878,-5.36868 l 1.50855,0.97612 q -3.37206,6.87724 -7.45404,9.76125 -4.08197,2.83963 -9.45065,2.83963 -9.22881,0 -13.97632,-7.09909 -3.81576,-5.72363 -3.81576,-14.19816 0,-10.38241 5.59053,-16.50537 5.63489,-6.16733 13.17767,-6.16733 6.30044,0 10.91484,5.1912 4.65878,5.14684 5.01373,15.3074 z m -10.91484,-2.97274 q 0,-7.14345 -0.79865,-9.80561 -0.75427,-2.66216 -2.39594,-4.0376 -0.93175,-0.79865 -2.48468,-0.79865 -2.3072,0 -3.77139,2.26283 -2.61778,3.94887 -2.61778,10.82611 l 0,1.55292 12.06844,0 z"
       style="font-style:normal;font-variant:normal;font-weight:bold;font-stretch:normal;font-size:90.8682785px;font-family:'Times New Roman';-inkscape-font-specification:'Times New Roman, ';fill:#2b1871;fill-opacity:1"
       id="path3400"
       inkscape:connector-curvature="0" />
    <path
       d="m 261.54775,384.48901 q -7.58715,6.69976 -13.62137,6.69976 -3.54954,0 -5.90111,-2.3072 -2.35157,-2.35157 -2.35157,-5.85675 0,-4.74751 4.08197,-8.5189 4.08197,-3.81576 17.79208,-10.11619 l 0,-4.17072 q 0,-4.70314 -0.53243,-5.90111 -0.48806,-1.24234 -1.90788,-2.12972 -1.41982,-0.93176 -3.19459,-0.93176 -2.884,0 -4.74751,1.28671 -1.1536,0.79865 -1.1536,1.86351 0,0.93175 1.24234,2.3072 1.68603,1.90788 1.68603,3.68265 0,2.1741 -1.64166,3.72702 -1.5973,1.50856 -4.21509,1.50856 -2.79526,0 -4.70314,-1.68604 -1.86351,-1.68603 -1.86351,-3.94886 0,-3.19459 2.52905,-6.07859 2.52905,-2.92838 7.05472,-4.4813 4.52566,-1.55292 9.40628,-1.55292 5.90112,0 9.31755,2.52904 3.4608,2.48468 4.4813,5.41306 0.62117,1.86351 0.62117,8.56327 l 0,16.10604 q 0,2.83964 0.22184,3.59392 0.22185,0.7099 0.66554,1.06486 0.4437,0.35495 1.0205,0.35495 1.1536,0 2.35157,-1.64166 l 1.33108,1.06486 q -2.21847,3.28333 -4.61441,4.79188 -2.35157,1.46419 -5.36868,1.46419 -3.54954,0 -5.54616,-1.64166 -1.99662,-1.68604 -2.44031,-5.0581 z m 0,-3.23896 0,-13.88758 q -5.36868,3.15022 -7.98647,6.74413 -1.7304,2.39594 -1.7304,4.83625 0,2.04099 1.46418,3.59391 1.10924,1.19797 3.10585,1.19797 2.21847,0 5.14684,-2.48468 z"
       style="font-style:normal;font-variant:normal;font-weight:bold;font-stretch:normal;font-size:90.8682785px;font-family:'Times New Roman';-inkscape-font-specification:'Times New Roman, ';fill:#2b1871;fill-opacity:1"
       id="path3402"
       inkscape:connector-curvature="0" />
    <path
       d="m 301.03641,349.1267 0,5.36868 q 3.19459,-3.46081 6.12296,-5.01373 2.92837,-1.59729 6.30044,-1.59729 4.0376,0 6.69976,2.26283 2.66215,2.21846 3.54954,5.54616 0.70991,2.52905 0.70991,9.71687 l 0,16.15042 q 0,4.79188 0.84301,5.98985 0.88739,1.1536 3.63828,1.46419 l 0,1.59729 -20.98666,0 0,-1.59729 q 2.35157,-0.31059 3.37206,-1.95225 0.70991,-1.10924 0.70991,-5.50179 l 0,-18.45762 q 0,-5.10247 -0.39932,-6.43355 -0.39933,-1.33108 -1.37545,-2.04098 -0.93176,-0.75428 -2.08536,-0.75428 -3.81575,0 -7.09908,5.45742 l 0,22.22901 q 0,4.65877 0.84302,5.90111 0.88738,1.24234 3.23895,1.55293 l 0,1.59729 -20.98667,0 0,-1.59729 q 2.61779,-0.26622 3.72702,-1.68604 0.75428,-0.97612 0.75428,-5.768 l 0,-23.42698 q 0,-4.70314 -0.88738,-5.85675 -0.84302,-1.1536 -3.59392,-1.50855 l 0,-1.64166 16.9047,0 z"
       style="font-style:normal;font-variant:normal;font-weight:bold;font-stretch:normal;font-size:90.8682785px;font-family:'Times New Roman';-inkscape-font-specification:'Times New Roman, ';fill:#2b1871;fill-opacity:1"
       id="path3404"
       inkscape:connector-curvature="0" />
    <path
       d="m 394.74431,358.71046 q 8.56327,1.99662 12.02408,4.83625 4.96935,4.0376 4.96935,10.47115 0,6.7885 -5.45742,11.22543 -6.69976,5.36868 -19.47811,5.36868 l -30.57043,0 0,-1.64166 q 4.17071,0 5.6349,-0.75428 1.50855,-0.79865 2.08535,-2.04099 0.62117,-1.24234 0.62117,-6.12296 l 0,-39.04496 q 0,-4.88062 -0.62117,-6.12296 -0.5768,-1.28671 -2.08535,-2.04099 -1.50856,-0.75428 -5.6349,-0.75428 l 0,-1.64166 28.84003,0 q 10.33804,0 14.64186,1.86351 4.30382,1.81914 6.7885,5.50179 2.48468,3.63828 2.48468,7.76462 0,4.34819 -3.15022,7.76463 -3.15022,3.37206 -11.09232,5.36868 z m -16.15042,-1.19797 q 6.30044,0 9.27318,-1.41982 3.01711,-1.41982 4.61441,-3.99323 1.59729,-2.57342 1.59729,-6.56666 0,-3.99323 -1.59729,-6.52228 -1.55293,-2.57342 -4.4813,-3.9045 -2.92837,-1.33107 -9.40629,-1.28671 l 0,23.6932 z m 0,3.4608 0,19.30064 -0.0444,2.21846 q 0,2.39594 1.19797,3.63828 1.24234,1.19797 3.63828,1.19797 3.54954,0 6.52228,-1.55292 3.01711,-1.5973 4.6144,-4.57004 1.5973,-3.01711 1.5973,-6.69976 0,-4.21508 -1.95225,-7.54278 -1.95225,-3.37206 -5.36868,-4.70314 -3.41644,-1.33108 -10.20494,-1.28671 z"
       style="font-style:normal;font-variant:normal;font-weight:bold;font-stretch:normal;font-size:90.8682785px;font-family:'Times New Roman';-inkscape-font-specification:'Times New Roman, ';fill:#2b1871;fill-opacity:1"
       id="path3406"
       inkscape:connector-curvature="0" />
    <path
       d="m 440.9771,384.48901 q -7.58715,6.69976 -13.62137,6.69976 -3.54954,0 -5.90111,-2.3072 -2.35157,-2.35157 -2.35157,-5.85675 0,-4.74751 4.08197,-8.5189 4.08197,-3.81576 17.79208,-10.11619 l 0,-4.17072 q 0,-4.70314 -0.53243,-5.90111 -0.48806,-1.24234 -1.90788,-2.12972 -1.41982,-0.93176 -3.19459,-0.93176 -2.884,0 -4.74751,1.28671 -1.1536,0.79865 -1.1536,1.86351 0,0.93175 1.24234,2.3072 1.68603,1.90788 1.68603,3.68265 0,2.1741 -1.64166,3.72702 -1.5973,1.50856 -4.21508,1.50856 -2.79527,0 -4.70315,-1.68604 -1.86351,-1.68603 -1.86351,-3.94886 0,-3.19459 2.52905,-6.07859 2.52905,-2.92838 7.05472,-4.4813 4.52566,-1.55292 9.40628,-1.55292 5.90112,0 9.31755,2.52904 3.46081,2.48468 4.4813,5.41306 0.62117,1.86351 0.62117,8.56327 l 0,16.10604 q 0,2.83964 0.22185,3.59392 0.22184,0.7099 0.66553,1.06486 0.4437,0.35495 1.0205,0.35495 1.1536,0 2.35157,-1.64166 l 1.33108,1.06486 q -2.21847,3.28333 -4.61441,4.79188 -2.35157,1.46419 -5.36868,1.46419 -3.54954,0 -5.54616,-1.64166 -1.99662,-1.68604 -2.44031,-5.0581 z m 0,-3.23896 0,-13.88758 q -5.36868,3.15022 -7.98647,6.74413 -1.7304,2.39594 -1.7304,4.83625 0,2.04099 1.46419,3.59391 1.10923,1.19797 3.10584,1.19797 2.21847,0 5.14684,-2.48468 z"
       style="font-style:normal;font-variant:normal;font-weight:bold;font-stretch:normal;font-size:90.8682785px;font-family:'Times New Roman';-inkscape-font-specification:'Times New Roman, ';fill:#2b1871;fill-opacity:1"
       id="path3408"
       inkscape:connector-curvature="0" />
    <path
       d="m 480.46576,349.1267 0,5.36868 q 3.19459,-3.46081 6.12296,-5.01373 2.92837,-1.59729 6.30044,-1.59729 4.0376,0 6.69976,2.26283 2.66216,2.21846 3.54954,5.54616 0.70991,2.52905 0.70991,9.71687 l 0,16.15042 q 0,4.79188 0.84302,5.98985 0.88738,1.1536 3.63828,1.46419 l 0,1.59729 -20.98667,0 0,-1.59729 q 2.35157,-0.31059 3.37206,-1.95225 0.70991,-1.10924 0.70991,-5.50179 l 0,-18.45762 q 0,-5.10247 -0.39932,-6.43355 -0.39932,-1.33108 -1.37545,-2.04098 -0.93175,-0.75428 -2.08535,-0.75428 -3.81576,0 -7.09909,5.45742 l 0,22.22901 q 0,4.65877 0.84302,5.90111 0.88738,1.24234 3.23895,1.55293 l 0,1.59729 -20.98666,0 0,-1.59729 q 2.61778,-0.26622 3.72702,-1.68604 0.75427,-0.97612 0.75427,-5.768 l 0,-23.42698 q 0,-4.70314 -0.88738,-5.85675 -0.84302,-1.1536 -3.59391,-1.50855 l 0,-1.64166 16.90469,0 z"
       style="font-style:normal;font-variant:normal;font-weight:bold;font-stretch:normal;font-size:90.8682785px;font-family:'Times New Roman';-inkscape-font-specification:'Times New Roman, ';fill:#2b1871;fill-opacity:1"
       id="path3410"
       inkscape:connector-curvature="0" />
    <path
       d="m 530.95799,330.44723 0,39.57739 9.62813,-9.45065 q 2.97274,-2.884 3.68265,-4.17071 0.75428,-1.28671 0.75428,-2.48468 0,-1.19797 -0.97613,-1.99662 -0.97612,-0.79865 -3.81576,-1.1536 l 0,-1.64166 18.59073,0 0,1.64166 q -2.66216,0.13311 -4.65877,1.28671 -1.99662,1.10923 -7.809,6.7885 l -4.52566,4.43692 9.76124,14.28691 q 5.90111,8.69638 7.01034,9.76124 1.50856,1.50856 3.81576,1.68604 l 0,1.59729 -21.43036,0 0,-1.59729 q 1.41982,0 2.04099,-0.53244 0.66554,-0.53243 0.66554,-1.1536 0,-1.02049 -1.86351,-3.77139 l -8.20832,-12.02407 -2.66215,2.61779 0,7.45404 q 0,4.74751 0.88738,5.94548 0.88739,1.1536 3.63828,1.46419 l 0,1.59729 -21.43036,0 0,-1.59729 q 2.61779,-0.26622 3.72702,-1.68604 0.75428,-0.97612 0.75428,-5.72363 l 0,-42.15082 q 0,-4.70314 -0.88739,-5.85674 -0.84301,-1.1536 -3.59391,-1.50856 l 0,-1.64166 16.9047,0 z"
       style="font-style:normal;font-variant:normal;font-weight:bold;font-stretch:normal;font-size:90.8682785px;font-family:'Times New Roman';-inkscape-font-specification:'Times New Roman, ';fill:#2b1871;fill-opacity:1"
       id="path3412"
       inkscape:connector-curvature="0" />
  </g>
  <g
     style="font-style:normal;font-weight:normal;font-size:152.69676208px;line-height:125%;font-family:sans-serif;letter-spacing:0px;word-spacing:0px;fill:#43347f;fill-opacity:1;stroke:none;stroke-width:1px;stroke-linecap:butt;stroke-linejoin:miter;stroke-opacity:1"
     id="text3495"
     transform="matrix(1.7268852,0,0,1.7268852,153.5343,73.166481)">
    <path
       d="m 25.591793,435.39275 0,14.02641 q 0,2.98236 0.652391,3.77454 0.862088,1.02519 2.306668,1.02519 l 1.933873,0 0,0.83879 -12.744924,0 0,-0.83879 0.955287,0 q 0.931987,0 1.700877,-0.46599 0.768889,-0.466 1.048485,-1.25819 0.302896,-0.79219 0.302896,-3.07555 l 0,-14.02641 -4.147343,0 0,-1.67758 4.147343,0 0,-1.39798 q 0,-3.19205 1.025186,-5.40552 1.025186,-2.21347 3.122156,-3.56485 2.120271,-1.37468 4.753135,-1.37468 2.446466,0 4.496837,1.58437 1.351382,1.04849 1.351382,2.35327 0,0.69899 -0.605792,1.32808 -0.605792,0.6058 -1.304782,0.6058 -0.535892,0 -1.141684,-0.3728 -0.582492,-0.39609 -1.44458,-1.65428 -0.862088,-1.28148 -1.584378,-1.72417 -0.72229,-0.4427 -1.607678,-0.4427 -1.071785,0 -1.817375,0.5825 -0.745589,0.55919 -1.071785,1.77077 -0.326195,1.18828 -0.326195,6.17442 l 0,1.53777 5.498724,0 0,1.67758 -5.498724,0 z"
       style="font-style:normal;font-variant:normal;font-weight:normal;font-stretch:normal;font-size:47.71773911px;font-family:'Times New Roman';-inkscape-font-specification:'Times New Roman, ';fill:#43347f;fill-opacity:1"
       id="path3415"
       inkscape:connector-curvature="0" />
    <path
       d="m 43.625743,433.08608 q 4.846333,0 7.782092,3.68135 2.493066,3.14546 2.493066,7.2229 0,2.86586 -1.374681,5.80162 -1.374681,2.93576 -3.797848,4.42694 -2.399867,1.49118 -5.358926,1.49118 -4.823033,0 -7.665593,-3.84445 -2.399867,-3.23865 -2.399867,-7.2695 0,-2.93576 1.44458,-5.82492 1.46788,-2.91246 3.844447,-4.28714 2.376567,-1.39798 5.03273,-1.39798 z m -0.72229,1.51448 q -1.234883,0 -2.493066,0.74559 -1.234882,0.72229 -2.003772,2.56297 -0.768889,1.84067 -0.768889,4.72983 0,4.65994 1.840674,8.03839 1.863975,3.37845 4.892933,3.37845 2.260068,0 3.727948,-1.86397 1.46788,-1.86398 1.46788,-6.40741 0,-5.68512 -2.446466,-8.94708 -1.654278,-2.23677 -4.217242,-2.23677 z"
       style="font-style:normal;font-variant:normal;font-weight:normal;font-stretch:normal;font-size:47.71773911px;font-family:'Times New Roman';-inkscape-font-specification:'Times New Roman, ';fill:#43347f;fill-opacity:1"
       id="path3417"
       inkscape:connector-curvature="0" />
    <path
       d="m 63.290671,433.08608 0,4.79974 q 2.679462,-4.79974 5.498723,-4.79974 1.281483,0 2.120271,0.79219 0.838788,0.76889 0.838788,1.79408 0,0.90868 -0.605791,1.53778 -0.605792,0.62909 -1.44458,0.62909 -0.815489,0 -1.840675,-0.79219 -1.001886,-0.81549 -1.491179,-0.81549 -0.419394,0 -0.908687,0.46599 -1.048486,0.95529 -2.16687,3.14546 l 0,10.22856 q 0,1.77077 0.442693,2.67946 0.302896,0.62909 1.071786,1.04849 0.768889,0.41939 2.213469,0.41939 l 0,0.83879 -10.927549,0 0,-0.83879 q 1.630978,0 2.423167,-0.51259 0.582492,-0.3728 0.815488,-1.18829 0.116499,-0.39609 0.116499,-2.26007 l 0,-8.27138 q 0,-3.72795 -0.163098,-4.42694 -0.139798,-0.72229 -0.559192,-1.04848 -0.396095,-0.3262 -1.001886,-0.3262 -0.72229,0 -1.630978,0.34949 l -0.232997,-0.83878 6.454011,-2.60957 0.978587,0 z"
       style="font-style:normal;font-variant:normal;font-weight:normal;font-stretch:normal;font-size:47.71773911px;font-family:'Times New Roman';-inkscape-font-specification:'Times New Roman, ';fill:#43347f;fill-opacity:1"
       id="path3419"
       inkscape:connector-curvature="0" />
    <path
       d="m 115.66834,455.05768 -8.43448,0 -10.694551,-14.772 q -1.188283,0.0466 -1.933873,0.0466 -0.302896,0 -0.652391,0 -0.349495,-0.0233 -0.72229,-0.0466 l 0,9.18008 q 0,2.98235 0.652391,3.70464 0.885388,1.02519 2.656163,1.02519 l 1.234883,0 0,0.86209 -13.537112,0 0,-0.86209 1.188283,0 q 2.003772,0 2.86586,-1.30478 0.489294,-0.72229 0.489294,-3.42505 l 0,-20.41052 q 0,-2.98236 -0.652391,-3.70465 -0.908688,-1.02519 -2.702763,-1.02519 l -1.188283,0 0,-0.86208 11.51004,0 q 5.03273,0 7.4093,0.74559 2.39986,0.72229 4.05414,2.70276 1.67758,1.95717 1.67758,4.68323 0,2.91246 -1.91058,5.05603 -1.88727,2.14357 -5.87151,3.02896 l 6.52391,9.06358 q 2.23676,3.12215 3.84444,4.14734 1.60768,1.02518 4.19394,1.30478 l 0,0.86209 z M 93.230755,438.8178 q 0.442694,0 0.768889,0.0233 0.326196,0 0.535893,0 4.520137,0 6.803503,-1.95717 2.30667,-1.95717 2.30667,-4.98613 0,-2.95906 -1.86397,-4.79973 -1.840678,-1.86398 -4.892936,-1.86398 -1.351381,0 -3.658049,0.4427 l 0,13.14101 z"
       style="font-style:normal;font-variant:normal;font-weight:normal;font-stretch:normal;font-size:47.71773911px;font-family:'Times New Roman';-inkscape-font-specification:'Times New Roman, ';fill:#43347f;fill-opacity:1"
       id="path3421"
       inkscape:connector-curvature="0" />
    <path
       d="m 120.37488,441.75356 q -0.0233,4.75314 2.30667,7.4559 2.32997,2.70276 5.47543,2.70276 2.09697,0 3.63474,-1.14168 1.56108,-1.16499 2.60957,-3.96095 l 0.72229,0.466 q -0.48929,3.19205 -2.84256,5.82492 -2.35327,2.60956 -5.89482,2.60956 -3.84445,0 -6.59381,-2.98236 -2.72606,-3.00566 -2.72606,-8.06169 0,-5.47542 2.79596,-8.52768 2.81926,-3.07556 7.0598,-3.07556 3.58815,0 5.89482,2.37657 2.30667,2.35327 2.30667,6.31421 l -14.7487,0 z m 0,-1.35138 9.87907,0 q -0.1165,-2.05037 -0.4893,-2.88916 -0.58249,-1.30478 -1.74747,-2.05037 -1.14169,-0.74559 -2.39987,-0.74559 -1.93387,0 -3.47165,1.51448 -1.51448,1.49118 -1.77078,4.17064 z"
       style="font-style:normal;font-variant:normal;font-weight:normal;font-stretch:normal;font-size:47.71773911px;font-family:'Times New Roman';-inkscape-font-specification:'Times New Roman, ';fill:#43347f;fill-opacity:1"
       id="path3423"
       inkscape:connector-curvature="0" />
    <path
       d="m 156.06999,446.94939 q -0.86209,4.21724 -3.37846,6.50061 -2.51636,2.26007 -5.56862,2.26007 -3.63475,0 -6.33751,-3.05226 -2.70276,-3.05226 -2.70276,-8.24808 0,-5.03273 2.98235,-8.17819 3.00566,-3.14546 7.1996,-3.14546 3.14546,0 5.17253,1.67758 2.02707,1.65428 2.02707,3.44835 0,0.88539 -0.58249,1.44458 -0.55919,0.53589 -1.58438,0.53589 -1.37468,0 -2.07367,-0.88538 -0.39609,-0.4893 -0.53589,-1.86398 -0.1165,-1.37468 -0.93199,-2.09697 -0.81548,-0.69899 -2.26006,-0.69899 -2.32997,0 -3.75125,1.72418 -1.88728,2.28337 -1.88728,6.03461 0,3.82115 1.86398,6.75691 1.88727,2.91246 5.07933,2.91246 2.28337,0 4.10074,-1.56108 1.28148,-1.07178 2.49307,-3.89104 l 0.67569,0.32619 z"
       style="font-style:normal;font-variant:normal;font-weight:normal;font-stretch:normal;font-size:47.71773911px;font-family:'Times New Roman';-inkscape-font-specification:'Times New Roman, ';fill:#43347f;fill-opacity:1"
       id="path3425"
       inkscape:connector-curvature="0" />
    <path
       d="m 169.5372,433.08608 q 4.84633,0 7.78209,3.68135 2.49307,3.14546 2.49307,7.2229 0,2.86586 -1.37469,5.80162 -1.37468,2.93576 -3.79784,4.42694 -2.39987,1.49118 -5.35893,1.49118 -4.82303,0 -7.66559,-3.84445 -2.39987,-3.23865 -2.39987,-7.2695 0,-2.93576 1.44458,-5.82492 1.46788,-2.91246 3.84445,-4.28714 2.37656,-1.39798 5.03273,-1.39798 z m -0.72229,1.51448 q -1.23488,0 -2.49307,0.74559 -1.23488,0.72229 -2.00377,2.56297 -0.76889,1.84067 -0.76889,4.72983 0,4.65994 1.84068,8.03839 1.86397,3.37845 4.89293,3.37845 2.26007,0 3.72795,-1.86397 1.46788,-1.86398 1.46788,-6.40741 0,-5.68512 -2.44647,-8.94708 -1.65428,-2.23677 -4.21724,-2.23677 z"
       style="font-style:normal;font-variant:normal;font-weight:normal;font-stretch:normal;font-size:47.71773911px;font-family:'Times New Roman';-inkscape-font-specification:'Times New Roman, ';fill:#43347f;fill-opacity:1"
       id="path3427"
       inkscape:connector-curvature="0" />
    <path
       d="m 189.17883,437.60622 q 3.75125,-4.52014 7.153,-4.52014 1.74747,0 3.00566,0.88539 1.25818,0.86209 2.00377,2.86586 0.51259,1.39798 0.51259,4.28714 l 0,9.11018 q 0,2.02707 0.3262,2.74936 0.25629,0.58249 0.81549,0.90868 0.58249,0.3262 2.12027,0.3262 l 0,0.83879 -10.55476,0 0,-0.83879 0.4427,0 q 1.49118,0 2.07367,-0.44269 0.60579,-0.466 0.83879,-1.35139 0.0932,-0.34949 0.0932,-2.19016 l 0,-8.73738 q 0,-2.91246 -0.76889,-4.21725 -0.74559,-1.32808 -2.53967,-1.32808 -2.77266,0 -5.52202,3.02896 l 0,11.25375 q 0,2.16687 0.25629,2.67946 0.3262,0.67569 0.88539,1.00188 0.58249,0.3029 2.32997,0.3029 l 0,0.83879 -10.55475,0 0,-0.83879 0.46599,0 q 1.63098,0 2.19017,-0.81549 0.58249,-0.83879 0.58249,-3.16875 l 0,-7.9219 q 0,-3.84444 -0.1864,-4.68323 -0.16309,-0.83879 -0.53589,-1.14168 -0.34949,-0.3029 -0.95529,-0.3029 -0.65239,0 -1.56107,0.34949 l -0.3495,-0.83878 6.43071,-2.60957 1.00189,0 0,4.52014 z"
       style="font-style:normal;font-variant:normal;font-weight:normal;font-stretch:normal;font-size:47.71773911px;font-family:'Times New Roman';-inkscape-font-specification:'Times New Roman, ';fill:#43347f;fill-opacity:1"
       id="path3429"
       inkscape:connector-curvature="0" />
    <path
       d="m 220.61009,433.08608 0,7.2695 -0.76888,0 q -0.88539,-3.42505 -2.28337,-4.65993 -1.37468,-1.23489 -3.51825,-1.23489 -1.63098,0 -2.63287,0.86209 -1.00188,0.86209 -1.00188,1.91058 0,1.30478 0.74559,2.23676 0.72229,0.95529 2.93575,2.02708 l 3.40176,1.65427 q 4.72983,2.30667 4.72983,6.08122 0,2.91246 -2.21347,4.70653 -2.19017,1.77078 -4.91623,1.77078 -1.95717,0 -4.47354,-0.69899 -0.76889,-0.233 -1.25818,-0.233 -0.53589,0 -0.83879,0.60579 l -0.76889,0 0,-7.61899 0.76889,0 q 0.65239,3.26195 2.49307,4.91623 1.84067,1.65428 4.12404,1.65428 1.60768,0 2.60956,-0.93199 1.02519,-0.95529 1.02519,-2.28337 0,-1.60767 -1.14168,-2.70276 -1.11839,-1.09508 -4.49684,-2.77266 -3.37846,-1.67758 -4.42694,-3.02896 -1.04849,-1.32808 -1.04849,-3.35515 0,-2.63287 1.79408,-4.40364 1.81737,-1.77078 4.68323,-1.77078 1.25819,0 3.05226,0.5359 1.18829,0.34949 1.58438,0.34949 0.37279,0 0.58249,-0.1631 0.2097,-0.1631 0.4893,-0.72229 l 0.76888,0 z"
       style="font-style:normal;font-variant:normal;font-weight:normal;font-stretch:normal;font-size:47.71773911px;font-family:'Times New Roman';-inkscape-font-specification:'Times New Roman, ';fill:#43347f;fill-opacity:1"
       id="path3431"
       inkscape:connector-curvature="0" />
    <path
       d="m 231.56094,426.70197 0,7.0132 4.98613,0 0,1.63098 -4.98613,0 0,13.84001 q 0,2.07367 0.58249,2.79596 0.60579,0.72229 1.53778,0.72229 0.76889,0 1.49118,-0.46599 0.72229,-0.4893 1.11838,-1.42128 l 0.90869,0 q -0.81549,2.28337 -2.30667,3.44835 -1.49118,1.14168 -3.07555,1.14168 -1.07179,0 -2.09698,-0.58249 -1.02518,-0.60579 -1.51447,-1.70087 -0.4893,-1.11839 -0.4893,-3.42506 l 0,-14.3526 -3.37845,0 0,-0.76889 q 1.28148,-0.51259 2.60956,-1.72417 1.35138,-1.23489 2.39987,-2.91246 0.53589,-0.88539 1.49118,-3.23866 l 0.72229,0 z"
       style="font-style:normal;font-variant:normal;font-weight:normal;font-stretch:normal;font-size:47.71773911px;font-family:'Times New Roman';-inkscape-font-specification:'Times New Roman, ';fill:#43347f;fill-opacity:1"
       id="path3433"
       inkscape:connector-curvature="0" />
    <path
       d="m 244.84176,433.08608 0,4.79974 q 2.67946,-4.79974 5.49872,-4.79974 1.28149,0 2.12028,0.79219 0.83878,0.76889 0.83878,1.79408 0,0.90868 -0.60579,1.53778 -0.60579,0.62909 -1.44458,0.62909 -0.81549,0 -1.84067,-0.79219 -1.00189,-0.81549 -1.49118,-0.81549 -0.4194,0 -0.90869,0.46599 -1.04848,0.95529 -2.16687,3.14546 l 0,10.22856 q 0,1.77077 0.44269,2.67946 0.3029,0.62909 1.07179,1.04849 0.76889,0.41939 2.21347,0.41939 l 0,0.83879 -10.92755,0 0,-0.83879 q 1.63098,0 2.42317,-0.51259 0.58249,-0.3728 0.81549,-1.18829 0.11649,-0.39609 0.11649,-2.26007 l 0,-8.27138 q 0,-3.72795 -0.16309,-4.42694 -0.1398,-0.72229 -0.5592,-1.04848 -0.39609,-0.3262 -1.00188,-0.3262 -0.72229,0 -1.63098,0.34949 l -0.233,-0.83878 6.45401,-2.60957 0.97859,0 z"
       style="font-style:normal;font-variant:normal;font-weight:normal;font-stretch:normal;font-size:47.71773911px;font-family:'Times New Roman';-inkscape-font-specification:'Times New Roman, ';fill:#43347f;fill-opacity:1"
       id="path3435"
       inkscape:connector-curvature="0" />
    <path
       d="m 273.24407,433.71517 0,12.93132 q 0,3.70465 0.1631,4.54344 0.18639,0.81549 0.55919,1.14169 0.39609,0.32619 0.90869,0.32619 0.72229,0 1.63097,-0.39609 l 0.3262,0.81549 -6.38411,2.63286 -1.04849,0 0,-4.52014 q -2.74936,2.98236 -4.19394,3.75125 -1.44458,0.76889 -3.05226,0.76889 -1.79407,0 -3.12215,-1.02519 -1.30479,-1.04848 -1.81738,-2.67946 -0.51259,-1.63098 -0.51259,-4.61334 l 0,-9.52956 q 0,-1.51448 -0.3262,-2.09697 -0.32619,-0.5825 -0.97858,-0.88539 -0.62909,-0.3262 -2.30667,-0.3029 l 0,-0.86209 7.47919,0 0,14.28271 q 0,2.98235 1.02519,3.91434 1.04849,0.93199 2.51637,0.93199 1.00188,0 2.26006,-0.62909 1.28149,-0.62909 3.02896,-2.39987 l 0,-12.09253 q 0,-1.81738 -0.67569,-2.44647 -0.65239,-0.65239 -2.74936,-0.69899 l 0,-0.86209 7.2695,0 z"
       style="font-style:normal;font-variant:normal;font-weight:normal;font-stretch:normal;font-size:47.71773911px;font-family:'Times New Roman';-inkscape-font-specification:'Times New Roman, ';fill:#43347f;fill-opacity:1"
       id="path3437"
       inkscape:connector-curvature="0" />
    <path
       d="m 296.52045,446.94939 q -0.86209,4.21724 -3.37845,6.50061 -2.51637,2.26007 -5.56863,2.26007 -3.63475,0 -6.33751,-3.05226 -2.70276,-3.05226 -2.70276,-8.24808 0,-5.03273 2.98236,-8.17819 3.00566,-3.14546 7.1996,-3.14546 3.14545,0 5.17253,1.67758 2.02707,1.65428 2.02707,3.44835 0,0.88539 -0.58249,1.44458 -0.5592,0.53589 -1.58438,0.53589 -1.37468,0 -2.07367,-0.88538 -0.3961,-0.4893 -0.5359,-1.86398 -0.11649,-1.37468 -0.93198,-2.09697 -0.81549,-0.69899 -2.26007,-0.69899 -2.32997,0 -3.75125,1.72418 -1.88727,2.28337 -1.88727,6.03461 0,3.82115 1.86397,6.75691 1.88727,2.91246 5.07933,2.91246 2.28337,0 4.10074,-1.56108 1.28149,-1.07178 2.49307,-3.89104 l 0.67569,0.32619 z"
       style="font-style:normal;font-variant:normal;font-weight:normal;font-stretch:normal;font-size:47.71773911px;font-family:'Times New Roman';-inkscape-font-specification:'Times New Roman, ';fill:#43347f;fill-opacity:1"
       id="path3439"
       inkscape:connector-curvature="0" />
    <path
       d="m 305.74711,426.70197 0,7.0132 4.98613,0 0,1.63098 -4.98613,0 0,13.84001 q 0,2.07367 0.58249,2.79596 0.6058,0.72229 1.53778,0.72229 0.76889,0 1.49118,-0.46599 0.72229,-0.4893 1.11839,-1.42128 l 0.90868,0 q -0.81549,2.28337 -2.30666,3.44835 -1.49118,1.14168 -3.07556,1.14168 -1.07179,0 -2.09697,-0.58249 -1.02519,-0.60579 -1.51448,-1.70087 -0.4893,-1.11839 -0.4893,-3.42506 l 0,-14.3526 -3.37845,0 0,-0.76889 q 1.28148,-0.51259 2.60957,-1.72417 1.35138,-1.23489 2.39986,-2.91246 0.53589,-0.88539 1.49118,-3.23866 l 0.72229,0 z"
       style="font-style:normal;font-variant:normal;font-weight:normal;font-stretch:normal;font-size:47.71773911px;font-family:'Times New Roman';-inkscape-font-specification:'Times New Roman, ';fill:#43347f;fill-opacity:1"
       id="path3441"
       inkscape:connector-curvature="0" />
    <path
       d="m 318.21244,421.92554 q 0.97859,0 1.65428,0.69899 0.69899,0.67569 0.69899,1.65427 0,0.97859 -0.69899,1.67758 -0.67569,0.69899 -1.65428,0.69899 -0.97858,0 -1.67757,-0.69899 -0.69899,-0.69899 -0.69899,-1.67758 0,-0.97858 0.67569,-1.65427 0.69899,-0.69899 1.70087,-0.69899 z m 1.93388,11.16054 0,17.14857 q 0,2.00377 0.27959,2.67946 0.3029,0.65239 0.86209,0.97858 0.58249,0.3262 2.09697,0.3262 l 0,0.83879 -10.36835,0 0,-0.83879 q 1.56107,0 2.09697,-0.3029 0.53589,-0.30289 0.83879,-1.00188 0.32619,-0.69899 0.32619,-2.67946 l 0,-8.22479 q 0,-3.47165 -0.2097,-4.49684 -0.16309,-0.74559 -0.51259,-1.02518 -0.34949,-0.3029 -0.95529,-0.3029 -0.65239,0 -1.58437,0.34949 l -0.3262,-0.83878 6.43071,-2.60957 1.02519,0 z"
       style="font-style:normal;font-variant:normal;font-weight:normal;font-stretch:normal;font-size:47.71773911px;font-family:'Times New Roman';-inkscape-font-specification:'Times New Roman, ';fill:#43347f;fill-opacity:1"
       id="path3443"
       inkscape:connector-curvature="0" />
    <path
       d="m 336.4561,433.08608 q 4.84633,0 7.78209,3.68135 2.49307,3.14546 2.49307,7.2229 0,2.86586 -1.37469,5.80162 -1.37468,2.93576 -3.79784,4.42694 -2.39987,1.49118 -5.35893,1.49118 -4.82303,0 -7.66559,-3.84445 -2.39987,-3.23865 -2.39987,-7.2695 0,-2.93576 1.44458,-5.82492 1.46788,-2.91246 3.84445,-4.28714 2.37656,-1.39798 5.03273,-1.39798 z m -0.72229,1.51448 q -1.23489,0 -2.49307,0.74559 -1.23488,0.72229 -2.00377,2.56297 -0.76889,1.84067 -0.76889,4.72983 0,4.65994 1.84068,8.03839 1.86397,3.37845 4.89293,3.37845 2.26007,0 3.72795,-1.86397 1.46788,-1.86398 1.46788,-6.40741 0,-5.68512 -2.44647,-8.94708 -1.65428,-2.23677 -4.21724,-2.23677 z"
       style="font-style:normal;font-variant:normal;font-weight:normal;font-stretch:normal;font-size:47.71773911px;font-family:'Times New Roman';-inkscape-font-specification:'Times New Roman, ';fill:#43347f;fill-opacity:1"
       id="path3445"
       inkscape:connector-curvature="0" />
    <path
       d="m 356.09771,437.60622 q 3.75125,-4.52014 7.153,-4.52014 1.74748,0 3.00566,0.88539 1.25818,0.86209 2.00377,2.86586 0.5126,1.39798 0.5126,4.28714 l 0,9.11018 q 0,2.02707 0.32619,2.74936 0.2563,0.58249 0.81549,0.90868 0.58249,0.3262 2.12027,0.3262 l 0,0.83879 -10.55475,0 0,-0.83879 0.44269,0 q 1.49118,0 2.07367,-0.44269 0.60579,-0.466 0.83879,-1.35139 0.0932,-0.34949 0.0932,-2.19016 l 0,-8.73738 q 0,-2.91246 -0.76889,-4.21725 -0.74559,-1.32808 -2.53966,-1.32808 -2.77267,0 -5.52203,3.02896 l 0,11.25375 q 0,2.16687 0.2563,2.67946 0.32619,0.67569 0.88539,1.00188 0.58249,0.3029 2.32996,0.3029 l 0,0.83879 -10.55475,0 0,-0.83879 0.46599,0 q 1.63098,0 2.19017,-0.81549 0.5825,-0.83879 0.5825,-3.16875 l 0,-7.9219 q 0,-3.84444 -0.1864,-4.68323 -0.1631,-0.83879 -0.53589,-1.14168 -0.3495,-0.3029 -0.95529,-0.3029 -0.65239,0 -1.56108,0.34949 l -0.34949,-0.83878 6.43071,-2.60957 1.00188,0 0,4.52014 z"
       style="font-style:normal;font-variant:normal;font-weight:normal;font-stretch:normal;font-size:47.71773911px;font-family:'Times New Roman';-inkscape-font-specification:'Times New Roman, ';fill:#43347f;fill-opacity:1"
       id="path3447"
       inkscape:connector-curvature="0" />
    <path
       d="m 397.75753,451.98212 q -3.28525,2.53967 -4.12404,2.93576 -1.25819,0.58249 -2.67947,0.58249 -2.21346,0 -3.65804,-1.51448 -1.42128,-1.51448 -1.42128,-3.98424 0,-1.56108 0.69899,-2.70276 0.95528,-1.58438 3.30855,-2.98236 2.37657,-1.39798 7.87529,-3.40176 l 0,-0.83878 q 0,-3.19206 -1.02519,-4.38034 -1.00188,-1.18829 -2.93575,-1.18829 -1.46788,0 -2.32997,0.79219 -0.88539,0.79219 -0.88539,1.81738 l 0.0466,1.35138 q 0,1.07178 -0.55919,1.65428 -0.5359,0.58249 -1.42128,0.58249 -0.86209,0 -1.42128,-0.60579 -0.5359,-0.6058 -0.5359,-1.65428 0,-2.00377 2.05038,-3.68135 2.05037,-1.67758 5.75502,-1.67758 2.84256,0 4.65993,0.95529 1.37468,0.72229 2.02707,2.26007 0.4194,1.00188 0.4194,4.10074 l 0,7.2462 q 0,3.05226 0.1165,3.75125 0.11649,0.67569 0.37279,0.90869 0.2796,0.23299 0.62909,0.23299 0.3728,0 0.65239,-0.16309 0.4893,-0.3029 1.88728,-1.70088 l 0,1.30478 q -2.60957,3.49495 -4.98613,3.49495 -1.14169,0 -1.81738,-0.79219 -0.67569,-0.79219 -0.69899,-2.70276 z m 0,-1.51448 0,-8.13159 q -3.51825,1.39799 -4.54344,1.98048 -1.84067,1.02518 -2.63286,2.14357 -0.79219,1.11838 -0.79219,2.44646 0,1.67758 1.00189,2.79596 1.00188,1.09509 2.30666,1.09509 1.77078,0 4.65994,-2.32997 z"
       style="font-style:normal;font-variant:normal;font-weight:normal;font-stretch:normal;font-size:47.71773911px;font-family:'Times New Roman';-inkscape-font-specification:'Times New Roman, ';fill:#43347f;fill-opacity:1"
       id="path3449"
       inkscape:connector-curvature="0" />
    <path
       d="m 413.04214,437.60622 q 3.75125,-4.52014 7.153,-4.52014 1.74748,0 3.00566,0.88539 1.25818,0.86209 2.00377,2.86586 0.51259,1.39798 0.51259,4.28714 l 0,9.11018 q 0,2.02707 0.3262,2.74936 0.2563,0.58249 0.81549,0.90868 0.58249,0.3262 2.12027,0.3262 l 0,0.83879 -10.55475,0 0,-0.83879 0.44269,0 q 1.49118,0 2.07367,-0.44269 0.60579,-0.466 0.83879,-1.35139 0.0932,-0.34949 0.0932,-2.19016 l 0,-8.73738 q 0,-2.91246 -0.76889,-4.21725 -0.74559,-1.32808 -2.53967,-1.32808 -2.77266,0 -5.52202,3.02896 l 0,11.25375 q 0,2.16687 0.2563,2.67946 0.32619,0.67569 0.88538,1.00188 0.5825,0.3029 2.32997,0.3029 l 0,0.83879 -10.55475,0 0,-0.83879 0.46599,0 q 1.63098,0 2.19017,-0.81549 0.58249,-0.83879 0.58249,-3.16875 l 0,-7.9219 q 0,-3.84444 -0.18639,-4.68323 -0.1631,-0.83879 -0.5359,-1.14168 -0.34949,-0.3029 -0.95528,-0.3029 -0.65239,0 -1.56108,0.34949 l -0.3495,-0.83878 6.43071,-2.60957 1.00189,0 0,4.52014 z"
       style="font-style:normal;font-variant:normal;font-weight:normal;font-stretch:normal;font-size:47.71773911px;font-family:'Times New Roman';-inkscape-font-specification:'Times New Roman, ';fill:#43347f;fill-opacity:1"
       id="path3451"
       inkscape:connector-curvature="0" />
    <path
       d="m 445.75487,452.65781 q -1.56108,1.63098 -3.05225,2.35327 -1.49118,0.69899 -3.21536,0.69899 -3.49495,0 -6.10452,-2.91246 -2.60956,-2.93576 -2.60956,-7.5258 0,-4.59003 2.88916,-8.38788 2.88916,-3.82115 7.4326,-3.82115 2.81926,0 4.65993,1.79408 l 0,-3.93765 q 0,-3.65805 -0.18639,-4.49684 -0.1631,-0.83878 -0.5359,-1.14168 -0.37279,-0.3029 -0.93198,-0.3029 -0.6058,0 -1.60768,0.3728 l -0.3029,-0.81549 6.36081,-2.60956 1.04849,0 0,24.67436 q 0,3.75124 0.1631,4.59003 0.1864,0.81549 0.55919,1.14169 0.39609,0.32619 0.90869,0.32619 0.62909,0 1.67757,-0.39609 l 0.2563,0.81549 -6.33751,2.63286 -1.07179,0 0,-3.05226 z m 0,-1.63098 0,-10.99744 q -0.13979,-1.58438 -0.83879,-2.88916 -0.69899,-1.30479 -1.86397,-1.95718 -1.14168,-0.67569 -2.23677,-0.67569 -2.05037,0 -3.65805,1.84068 -2.12027,2.42316 -2.12027,7.0831 0,4.70653 2.05037,7.2229 2.05037,2.49306 4.56674,2.49306 2.12027,0 4.10074,-2.12027 z"
       style="font-style:normal;font-variant:normal;font-weight:normal;font-stretch:normal;font-size:47.71773911px;font-family:'Times New Roman';-inkscape-font-specification:'Times New Roman, ';fill:#43347f;fill-opacity:1"
       id="path3453"
       inkscape:connector-curvature="0" />
    <path
       d="m 465.79259,455.05768 0,-0.86209 1.18828,0 q 2.00378,0 2.84257,-1.28148 0.51259,-0.76889 0.51259,-3.44835 l 0,-20.41052 q 0,-2.95906 -0.65239,-3.70465 -0.90869,-1.02519 -2.70277,-1.02519 l -1.18828,0 0,-0.86208 12.86142,0 q 7.0831,0 10.76445,1.60767 3.70465,1.60768 5.94142,5.35893 2.26007,3.75125 2.26007,8.66748 0,6.59381 -4.00754,11.02075 -4.49684,4.93953 -13.70021,4.93953 l -14.11961,0 z m 9.01698,-2.28337 q 2.95906,0.65239 4.96283,0.65239 5.40552,0 8.97037,-3.79785 3.56485,-3.79784 3.56485,-10.29845 0,-6.54721 -3.56485,-10.32176 -3.56485,-3.77455 -9.15677,-3.77455 -2.09697,0 -4.77643,0.67569 l 0,26.86453 z"
       style="font-style:normal;font-variant:normal;font-weight:normal;font-stretch:normal;font-size:47.71773911px;font-family:'Times New Roman';-inkscape-font-specification:'Times New Roman, ';fill:#43347f;fill-opacity:1"
       id="path3455"
       inkscape:connector-curvature="0" />
    <path
       d="m 504.53995,441.75356 q -0.0233,4.75314 2.30667,7.4559 2.32997,2.70276 5.47542,2.70276 2.09698,0 3.63475,-1.14168 1.56108,-1.16499 2.60957,-3.96095 l 0.72229,0.466 q -0.4893,3.19205 -2.84256,5.82492 -2.35327,2.60956 -5.89482,2.60956 -3.84445,0 -6.59381,-2.98236 -2.72606,-3.00566 -2.72606,-8.06169 0,-5.47542 2.79596,-8.52768 2.81926,-3.07556 7.0598,-3.07556 3.58815,0 5.89482,2.37657 2.30667,2.35327 2.30667,6.31421 l -14.7487,0 z m 0,-1.35138 9.87907,0 q -0.1165,-2.05037 -0.4893,-2.88916 -0.58249,-1.30478 -1.74747,-2.05037 -1.14169,-0.74559 -2.39987,-0.74559 -1.93387,0 -3.47165,1.51448 -1.51448,1.49118 -1.77078,4.17064 z"
       style="font-style:normal;font-variant:normal;font-weight:normal;font-stretch:normal;font-size:47.71773911px;font-family:'Times New Roman';-inkscape-font-specification:'Times New Roman, ';fill:#43347f;fill-opacity:1"
       id="path3457"
       inkscape:connector-curvature="0" />
    <path
       d="m 521.01281,433.71517 10.04217,0 0,0.86209 -0.6524,0 q -0.90868,0 -1.39798,0.4427 -0.46599,0.44269 -0.46599,1.18828 0,0.81549 0.48929,1.93387 l 4.96283,11.78964 4.98614,-12.23233 q 0.53589,-1.30478 0.53589,-1.98047 0,-0.3262 -0.1864,-0.5359 -0.2563,-0.34949 -0.65239,-0.46599 -0.39609,-0.1398 -1.60768,-0.1398 l 0,-0.86209 6.96661,0 0,0.86209 q -1.21159,0.0932 -1.67758,0.4893 -0.81549,0.69899 -1.46788,2.32996 l -7.5724,18.31355 -0.95528,0 -7.619,-18.01065 q -0.51259,-1.25818 -0.97858,-1.79408 -0.466,-0.55919 -1.18829,-0.93198 -0.39609,-0.2097 -1.56108,-0.3961 l 0,-0.86209 z"
       style="font-style:normal;font-variant:normal;font-weight:normal;font-stretch:normal;font-size:47.71773911px;font-family:'Times New Roman';-inkscape-font-specification:'Times New Roman, ';fill:#43347f;fill-opacity:1"
       id="path3459"
       inkscape:connector-curvature="0" />
    <path
       d="m 549.55491,441.75356 q -0.0233,4.75314 2.30666,7.4559 2.32997,2.70276 5.47543,2.70276 2.09697,0 3.63475,-1.14168 1.56108,-1.16499 2.60956,-3.96095 l 0.72229,0.466 q -0.48929,3.19205 -2.84256,5.82492 -2.35327,2.60956 -5.89482,2.60956 -3.84444,0 -6.59381,-2.98236 -2.72606,-3.00566 -2.72606,-8.06169 0,-5.47542 2.79596,-8.52768 2.81926,-3.07556 7.05981,-3.07556 3.58815,0 5.89481,2.37657 2.30667,2.35327 2.30667,6.31421 l -14.74869,0 z m 0,-1.35138 9.87906,0 q -0.1165,-2.05037 -0.48929,-2.88916 -0.5825,-1.30478 -1.74748,-2.05037 -1.14168,-0.74559 -2.39987,-0.74559 -1.93387,0 -3.47165,1.51448 -1.51448,1.49118 -1.77077,4.17064 z"
       style="font-style:normal;font-variant:normal;font-weight:normal;font-stretch:normal;font-size:47.71773911px;font-family:'Times New Roman';-inkscape-font-specification:'Times New Roman, ';fill:#43347f;fill-opacity:1"
       id="path3461"
       inkscape:connector-curvature="0" />
    <path
       d="m 574.46228,421.92554 0,28.30911 q 0,2.00377 0.2796,2.65616 0.30289,0.65239 0.90869,1.00188 0.60579,0.3262 2.26006,0.3262 l 0,0.83879 -10.46155,0 0,-0.83879 q 1.46788,0 2.00377,-0.3029 0.53589,-0.30289 0.83879,-1.00188 0.3029,-0.69899 0.3029,-2.67946 l 0,-19.38534 q 0,-3.61145 -0.1631,-4.42694 -0.1631,-0.83878 -0.53589,-1.14168 -0.3495,-0.3029 -0.90869,-0.3029 -0.60579,0 -1.53778,0.3728 l -0.3961,-0.81549 6.36082,-2.60956 1.04848,0 z"
       style="font-style:normal;font-variant:normal;font-weight:normal;font-stretch:normal;font-size:47.71773911px;font-family:'Times New Roman';-inkscape-font-specification:'Times New Roman, ';fill:#43347f;fill-opacity:1"
       id="path3463"
       inkscape:connector-curvature="0" />
    <path
       d="m 590.79539,433.08608 q 4.84633,0 7.78209,3.68135 2.49307,3.14546 2.49307,7.2229 0,2.86586 -1.37468,5.80162 -1.37468,2.93576 -3.79785,4.42694 -2.39987,1.49118 -5.35892,1.49118 -4.82304,0 -7.6656,-3.84445 -2.39987,-3.23865 -2.39987,-7.2695 0,-2.93576 1.44458,-5.82492 1.46788,-2.91246 3.84445,-4.28714 2.37657,-1.39798 5.03273,-1.39798 z m -0.72229,1.51448 q -1.23488,0 -2.49306,0.74559 -1.23489,0.72229 -2.00378,2.56297 -0.76889,1.84067 -0.76889,4.72983 0,4.65994 1.84068,8.03839 1.86397,3.37845 4.89293,3.37845 2.26007,0 3.72795,-1.86397 1.46788,-1.86398 1.46788,-6.40741 0,-5.68512 -2.44647,-8.94708 -1.65427,-2.23677 -4.21724,-2.23677 z"
       style="font-style:normal;font-variant:normal;font-weight:normal;font-stretch:normal;font-size:47.71773911px;font-family:'Times New Roman';-inkscape-font-specification:'Times New Roman, ';fill:#43347f;fill-opacity:1"
       id="path3465"
       inkscape:connector-curvature="0" />
    <path
       d="m 602.67818,435.83544 6.57051,-2.65616 0.88539,0 0,4.98613 q 1.65428,-2.81926 3.30855,-3.93764 1.67758,-1.14169 3.51826,-1.14169 3.21535,0 5.35892,2.51637 2.63287,3.07556 2.63287,8.01509 0,5.52202 -3.16876,9.13347 -2.60956,2.95906 -6.57051,2.95906 -1.72418,0 -2.98236,-0.48929 -0.93199,-0.3495 -2.09697,-1.39798 l 0,6.50061 q 0,2.19016 0.2563,2.77266 0.27959,0.60579 0.93198,0.95528 0.67569,0.3495 2.42317,0.3495 l 0,0.86209 -11.18384,0 0,-0.86209 0.58249,0 q 1.28148,0.0233 2.19017,-0.48929 0.44269,-0.2563 0.67569,-0.83879 0.25629,-0.5592 0.25629,-2.88916 l 0,-20.17752 q 0,-2.07367 -0.18639,-2.63287 -0.1864,-0.55919 -0.6058,-0.83879 -0.39609,-0.27959 -1.09508,-0.27959 -0.55919,0 -1.42128,0.32619 l -0.2796,-0.74559 z m 7.4559,3.70465 0,7.96849 q 0,2.58627 0.2097,3.40176 0.32619,1.35138 1.58438,2.37656 1.28148,1.02519 3.21535,1.02519 2.32997,0 3.77455,-1.81738 1.88727,-2.37656 1.88727,-6.687 0,-4.89294 -2.14357,-7.5258 -1.49118,-1.81737 -3.54155,-1.81737 -1.11838,0 -2.21347,0.55919 -0.83879,0.41939 -2.77266,2.51636 z"
       style="font-style:normal;font-variant:normal;font-weight:normal;font-stretch:normal;font-size:47.71773911px;font-family:'Times New Roman';-inkscape-font-specification:'Times New Roman, ';fill:#43347f;fill-opacity:1"
       id="path3467"
       inkscape:connector-curvature="0" />
    <path
       d="m 634.41236,437.62952 q 2.32997,-2.32997 2.74936,-2.67946 1.04849,-0.88539 2.26007,-1.37468 1.21159,-0.4893 2.39987,-0.4893 2.00377,0 3.44835,1.16499 1.44458,1.16498 1.93387,3.37845 2.39987,-2.79596 4.05415,-3.65805 1.65428,-0.88539 3.40175,-0.88539 1.70088,0 3.00566,0.88539 1.32808,0.86209 2.09697,2.84256 0.51259,1.35138 0.51259,4.24054 l 0,9.18008 q 0,2.00377 0.3029,2.74936 0.233,0.51259 0.86209,0.88538 0.62909,0.3495 2.05037,0.3495 l 0,0.83879 -10.53146,0 0,-0.83879 0.4427,0 q 1.37468,0 2.14357,-0.53589 0.53589,-0.3728 0.76889,-1.18829 0.0932,-0.39609 0.0932,-2.26006 l 0,-9.18008 q 0,-2.60956 -0.62909,-3.68135 -0.90869,-1.49118 -2.91246,-1.49118 -1.23489,0 -2.49307,0.6291 -1.23488,0.60579 -3.00566,2.28336 l -0.0466,0.2563 0.0466,1.00189 0,10.18196 q 0,2.19016 0.233,2.72606 0.2563,0.53589 0.93199,0.90868 0.67569,0.3495 2.30666,0.3495 l 0,0.83879 -10.78775,0 0,-0.83879 q 1.77078,0 2.42317,-0.41939 0.67569,-0.4194 0.93199,-1.25819 0.1165,-0.39609 0.1165,-2.30666 l 0,-9.18008 q 0,-2.60956 -0.76889,-3.75125 -1.02519,-1.49118 -2.86586,-1.49118 -1.25819,0 -2.49307,0.6757 -1.93387,1.02518 -2.98236,2.30666 l 0,11.44015 q 0,2.09697 0.2796,2.72606 0.30289,0.62909 0.86209,0.95528 0.58249,0.3029 2.32996,0.3029 l 0,0.83879 -10.55475,0 0,-0.83879 q 1.46788,0 2.05037,-0.3029 0.58249,-0.32619 0.88539,-1.00188 0.30289,-0.69899 0.30289,-2.67946 l 0,-8.15489 q 0,-3.51825 -0.20969,-4.54344 -0.1631,-0.76889 -0.5126,-1.04848 -0.34949,-0.3029 -0.95528,-0.3029 -0.65239,0 -1.56108,0.34949 l -0.3495,-0.83878 6.43072,-2.60957 1.00188,0 0,4.54344 z"
       style="font-style:normal;font-variant:normal;font-weight:normal;font-stretch:normal;font-size:47.71773911px;font-family:'Times New Roman';-inkscape-font-specification:'Times New Roman, ';fill:#43347f;fill-opacity:1"
       id="path3469"
       inkscape:connector-curvature="0" />
    <path
       d="m 668.75608,441.75356 q -0.0233,4.75314 2.30667,7.4559 2.32996,2.70276 5.47542,2.70276 2.09697,0 3.63475,-1.14168 1.56108,-1.16499 2.60956,-3.96095 l 0.72229,0.466 q -0.48929,3.19205 -2.84256,5.82492 -2.35326,2.60956 -5.89482,2.60956 -3.84444,0 -6.5938,-2.98236 -2.72607,-3.00566 -2.72607,-8.06169 0,-5.47542 2.79597,-8.52768 2.81926,-3.07556 7.0598,-3.07556 3.58815,0 5.89482,2.37657 2.30666,2.35327 2.30666,6.31421 l -14.74869,0 z m 0,-1.35138 9.87906,0 q -0.1165,-2.05037 -0.48929,-2.88916 -0.58249,-1.30478 -1.74748,-2.05037 -1.14168,-0.74559 -2.39986,-0.74559 -1.93388,0 -3.47166,1.51448 -1.51448,1.49118 -1.77077,4.17064 z"
       style="font-style:normal;font-variant:normal;font-weight:normal;font-stretch:normal;font-size:47.71773911px;font-family:'Times New Roman';-inkscape-font-specification:'Times New Roman, ';fill:#43347f;fill-opacity:1"
       id="path3471"
       inkscape:connector-curvature="0" />
    <path
       d="m 692.54507,437.60622 q 3.75125,-4.52014 7.153,-4.52014 1.74748,0 3.00566,0.88539 1.25818,0.86209 2.00377,2.86586 0.51259,1.39798 0.51259,4.28714 l 0,9.11018 q 0,2.02707 0.3262,2.74936 0.2563,0.58249 0.81549,0.90868 0.58249,0.3262 2.12027,0.3262 l 0,0.83879 -10.55476,0 0,-0.83879 0.4427,0 q 1.49118,0 2.07367,-0.44269 0.60579,-0.466 0.83879,-1.35139 0.0932,-0.34949 0.0932,-2.19016 l 0,-8.73738 q 0,-2.91246 -0.76889,-4.21725 -0.74559,-1.32808 -2.53967,-1.32808 -2.77266,0 -5.52202,3.02896 l 0,11.25375 q 0,2.16687 0.2563,2.67946 0.32619,0.67569 0.88538,1.00188 0.5825,0.3029 2.32997,0.3029 l 0,0.83879 -10.55475,0 0,-0.83879 0.46599,0 q 1.63098,0 2.19017,-0.81549 0.58249,-0.83879 0.58249,-3.16875 l 0,-7.9219 q 0,-3.84444 -0.18639,-4.68323 -0.1631,-0.83879 -0.5359,-1.14168 -0.34949,-0.3029 -0.95528,-0.3029 -0.6524,0 -1.56108,0.34949 l -0.3495,-0.83878 6.43071,-2.60957 1.00189,0 0,4.52014 z"
       style="font-style:normal;font-variant:normal;font-weight:normal;font-stretch:normal;font-size:47.71773911px;font-family:'Times New Roman';-inkscape-font-specification:'Times New Roman, ';fill:#43347f;fill-opacity:1"
       id="path3473"
       inkscape:connector-curvature="0" />
    <path
       d="m 716.3806,426.70197 0,7.0132 4.98613,0 0,1.63098 -4.98613,0 0,13.84001 q 0,2.07367 0.58249,2.79596 0.60579,0.72229 1.53778,0.72229 0.76889,0 1.49118,-0.46599 0.72229,-0.4893 1.11838,-1.42128 l 0.90869,0 q -0.81549,2.28337 -2.30667,3.44835 -1.49118,1.14168 -3.07556,1.14168 -1.07178,0 -2.09697,-0.58249 -1.02518,-0.60579 -1.51448,-1.70087 -0.48929,-1.11839 -0.48929,-3.42506 l 0,-14.3526 -3.37845,0 0,-0.76889 q 1.28148,-0.51259 2.60956,-1.72417 1.35138,-1.23489 2.39987,-2.91246 0.53589,-0.88539 1.49118,-3.23866 l 0.72229,0 z"
       style="font-style:normal;font-variant:normal;font-weight:normal;font-stretch:normal;font-size:47.71773911px;font-family:'Times New Roman';-inkscape-font-specification:'Times New Roman, ';fill:#43347f;fill-opacity:1"
       id="path3475"
       inkscape:connector-curvature="0" />
  </g>
</svg>
