<?xml version="1.0" encoding="UTF-8"?>
<svg xmlns="http://www.w3.org/2000/svg" xmlns:xlink="http://www.w3.org/1999/xlink" width="320.49pt" height="499.3pt" viewBox="0 0 320.49 499.3" version="1.1">
<defs>
<clipPath id="clip1">
  <path d="M 273 54 L 320.488281 54 L 320.488281 209 L 273 209 Z M 273 54 "/>
</clipPath>
<clipPath id="clip2">
  <path d="M 100 473 L 125 473 L 125 499.300781 L 100 499.300781 Z M 100 473 "/>
</clipPath>
<clipPath id="clip3">
  <path d="M 184 473 L 207 473 L 207 499.300781 L 184 499.300781 Z M 184 473 "/>
</clipPath>
<clipPath id="clip4">
  <path d="M 287 473 L 304 473 L 304 499.300781 L 287 499.300781 Z M 287 473 "/>
</clipPath>
</defs>
<g id="surface1">
<path style=" stroke:none;fill-rule:nonzero;fill:rgb(0%,0%,0%);fill-opacity:1;" d="M 237.589844 68.203125 C 229.273438 58.691406 217.230469 53.933594 201.519531 53.933594 C 192.472656 53.933594 184.222656 55.738281 176.761719 59.339844 C 169.304688 62.917969 161.648438 67.933594 153.78125 74.320313 L 153.78125 1.472656 L 105.925781 1.472656 C 103.578125 1.203125 101.132813 0.941406 98.464844 0.71875 C 92.414063 0.253906 85.914063 0.00390625 78.988281 0.00390625 C 58.953125 0.00390625 44.011719 4.523438 34.132813 13.578125 C 24.277344 22.628906 19.34375 36.183594 19.34375 54.285156 L 19.34375 58.375 L 0 58.375 L 0 90.507813 L 19.34375 90.507813 L 19.34375 205.769531 L 67.285156 205.769531 L 67.285156 90.507813 L 103.640625 90.507813 L 103.640625 58.375 L 65.742188 58.375 L 65.742188 57.191406 C 65.742188 47.816406 67.488281 41.429688 71.015625 38 C 74.511719 34.589844 81.121094 32.886719 90.804688 32.886719 C 94.273438 32.886719 97.941406 33.300781 101.828125 34.15625 C 103.335938 34.472656 104.636719 34.765625 105.828125 35.046875 L 105.828125 205.769531 L 153.78125 205.769531 L 153.78125 100.835938 C 158.382813 97.734375 162.730469 95.523438 166.769531 94.097656 C 170.824219 92.703125 174.828125 91.984375 178.789063 91.984375 C 184.03125 91.984375 188.230469 92.703125 191.367188 94.15625 C 194.480469 95.609375 196.886719 98.015625 198.527344 101.335938 C 199.925781 104.15625 200.867188 108.539063 201.367188 114.472656 C 201.875 120.40625 202.125 126.363281 202.125 132.320313 L 202.125 205.769531 L 250.078125 205.769531 L 250.078125 109.601563 C 250.078125 91.519531 245.929688 77.75 237.589844 68.203125 "/>
<g clip-path="url(#clip1)" clip-rule="nonzero">
<path style=" stroke:none;fill-rule:nonzero;fill:rgb(57.598877%,58.399963%,59.599304%);fill-opacity:1;" d="M 320.488281 54.71875 L 320.488281 208.957031 L 273.824219 208.957031 L 273.824219 101.847656 C 273.824219 101.847656 270.265625 54.71875 320.488281 54.71875 "/>
</g>
<path style=" stroke:none;fill-rule:nonzero;fill:rgb(96.099854%,50.999451%,12.199402%);fill-opacity:1;" d="M 287.269531 26.511719 C 287.269531 39.832031 276.660156 50.636719 263.554688 50.636719 C 250.457031 50.636719 239.84375 39.832031 239.84375 26.511719 C 239.84375 13.1875 250.457031 2.378906 263.554688 2.378906 C 276.660156 2.378906 287.269531 13.1875 287.269531 26.511719 "/>
<path style=" stroke:none;fill-rule:nonzero;fill:rgb(96.099854%,50.999451%,12.199402%);fill-opacity:1;" d="M 179.167969 222.820313 L 191.070313 232.011719 L 151.644531 300.953125 C 156.917969 298.949219 161.882813 297.949219 166.519531 297.949219 C 178.128906 297.949219 187.980469 302.808594 196.0625 312.515625 C 204.152344 322.230469 208.203125 334.195313 208.203125 348.394531 C 208.203125 358.160156 206.246094 366.960938 202.34375 374.835938 C 198.445313 382.710938 192.902344 388.972656 185.730469 393.613281 C 178.550781 398.265625 170.835938 400.582031 162.570313 400.582031 C 154.554688 400.582031 147.132813 398.335938 140.296875 393.855469 C 133.453125 389.375 128.074219 383.074219 124.175781 374.945313 C 120.261719 366.828125 118.320313 358.121094 118.320313 348.84375 C 118.320313 341.945313 119.53125 334.695313 121.945313 327.066406 C 124.363281 319.4375 128.675781 310.253906 134.898438 299.523438 L 179.167969 222.820313 M 163.132813 312.78125 C 154.617188 312.78125 147.382813 316.261719 141.4375 323.21875 C 135.492188 330.191406 132.519531 338.628906 132.519531 348.550781 C 132.519531 358.390625 135.527344 366.804688 141.535156 373.761719 C 147.523438 380.722656 154.769531 384.199219 163.265625 384.199219 C 171.746094 384.199219 178.988281 380.722656 184.996094 373.761719 C 190.996094 366.804688 193.992188 358.390625 193.992188 348.550781 C 193.992188 338.628906 190.980469 330.191406 184.953125 323.21875 C 178.9375 316.261719 171.671875 312.78125 163.132813 312.78125 "/>
<path style=" stroke:none;fill-rule:nonzero;fill:rgb(96.099854%,50.999451%,12.199402%);fill-opacity:1;" d="M 267.902344 226.117188 L 261.351563 226.117188 C 238.488281 226.117188 219.949219 243.636719 219.949219 265.242188 L 219.949219 358.160156 C 219.949219 379.769531 238.488281 397.285156 261.351563 397.285156 L 267.902344 397.285156 C 290.769531 397.285156 309.308594 379.769531 309.308594 358.160156 L 309.308594 265.242188 C 309.308594 243.636719 290.769531 226.117188 267.902344 226.117188 M 293.203125 352.628906 C 293.203125 369.050781 285.042969 382.40625 267.511719 382.40625 L 261.742188 382.40625 C 244.214844 382.40625 235.789063 369.050781 235.789063 352.628906 L 235.789063 270.773438 C 235.789063 254.355469 244.214844 240.996094 261.742188 240.996094 L 267.511719 240.996094 C 285.042969 240.996094 293.203125 254.355469 293.203125 270.773438 L 293.203125 352.628906 "/>
<path style=" stroke:none;fill-rule:nonzero;fill:rgb(96.099854%,50.999451%,12.199402%);fill-opacity:1;" d="M 88.15625 308.289063 C 98.964844 299.644531 105.925781 286.304688 105.925781 271.273438 C 105.925781 245.222656 85.054688 224.101563 59.300781 224.101563 C 33.71875 224.101563 12.984375 244.941406 12.703125 270.761719 L 29.136719 270.761719 C 29.414063 254.113281 42.789063 240.703125 59.300781 240.703125 C 75.988281 240.703125 89.515625 254.390625 89.515625 271.273438 C 89.515625 287.363281 77.199219 300.402344 61.601563 301.625 L 53.449219 301.625 L 53.449219 318.421875 L 58.984375 318.421875 L 58.984375 318.445313 C 59.085938 318.445313 59.191406 318.460938 59.300781 318.460938 C 59.5625 318.460938 59.820313 318.421875 60.078125 318.421875 L 73.4375 318.421875 C 84.796875 323.722656 92.746094 335.414063 92.746094 349.078125 C 92.746094 367.71875 78.039063 382.832031 59.917969 382.832031 C 42.515625 382.832031 28.40625 368.855469 27.308594 351.238281 L 11.183594 351.238281 C 12.289063 377.960938 33.664063 399.300781 59.917969 399.300781 C 86.878906 399.300781 108.761719 376.8125 108.761719 349.078125 C 108.761719 332.203125 100.578125 317.394531 88.15625 308.289063 "/>
<path style=" stroke:none;fill-rule:nonzero;fill:rgb(13.699341%,12.199402%,12.5%);fill-opacity:1;" d="M 24.347656 431.382813 L 16.199219 431.382813 L 16.199219 428.605469 L 36.035156 428.605469 L 36.035156 431.382813 L 27.847656 431.382813 L 27.847656 453.882813 L 24.347656 453.882813 L 24.347656 431.382813 "/>
<path style=" stroke:none;fill-rule:nonzero;fill:rgb(13.699341%,12.199402%,12.5%);fill-opacity:1;" d="M 44.066406 428.605469 L 44.066406 439.183594 L 57.027344 439.183594 L 57.027344 428.605469 L 60.523438 428.605469 L 60.523438 453.882813 L 57.027344 453.882813 L 57.027344 442.03125 L 44.066406 442.03125 L 44.066406 453.882813 L 40.566406 453.882813 L 40.566406 428.605469 L 44.066406 428.605469 "/>
<path style=" stroke:none;fill-rule:nonzero;fill:rgb(13.699341%,12.199402%,12.5%);fill-opacity:1;" d="M 81.953125 442.03125 L 71.574219 442.03125 L 71.574219 451.148438 L 83.183594 451.148438 L 83.183594 453.882813 L 68.078125 453.882813 L 68.078125 428.605469 L 82.585938 428.605469 L 82.585938 431.34375 L 71.574219 431.34375 L 71.574219 439.332031 L 81.953125 439.332031 L 81.953125 442.03125 "/>
<path style=" stroke:none;fill-rule:nonzero;fill:rgb(13.699341%,12.199402%,12.5%);fill-opacity:1;" d="M 98.84375 449.90625 C 100.394531 450.84375 102.621094 451.558594 105.007813 451.558594 C 108.546875 451.558594 110.613281 449.832031 110.613281 447.246094 C 110.613281 444.921875 109.183594 443.53125 105.5625 442.257813 C 101.191406 440.757813 98.488281 438.582031 98.488281 435.058594 C 98.488281 431.117188 101.945313 428.195313 107.152344 428.195313 C 109.855469 428.195313 111.886719 428.792969 113.039063 429.429688 L 112.085938 432.09375 C 111.25 431.605469 109.460938 430.894531 107.035156 430.894531 C 103.378906 430.894531 101.984375 432.957031 101.984375 434.683594 C 101.984375 437.042969 103.617188 438.207031 107.3125 439.558594 C 111.84375 441.246094 114.109375 443.269531 114.109375 446.984375 C 114.109375 450.882813 111.089844 454.296875 104.769531 454.296875 C 102.183594 454.296875 99.363281 453.546875 97.929688 452.648438 L 98.84375 449.90625 "/>
<path style=" stroke:none;fill-rule:nonzero;fill:rgb(13.699341%,12.199402%,12.5%);fill-opacity:1;" d="M 139.15625 453.097656 C 137.921875 453.695313 135.339844 454.296875 132.078125 454.296875 C 124.527344 454.296875 118.882813 449.796875 118.882813 441.46875 C 118.882813 433.519531 124.566406 428.195313 132.875 428.195313 C 136.175781 428.195313 138.320313 428.867188 139.234375 429.320313 L 138.359375 431.980469 C 137.089844 431.382813 135.21875 430.929688 132.992188 430.929688 C 126.714844 430.929688 122.539063 434.71875 122.539063 441.355469 C 122.539063 447.582031 126.316406 451.523438 132.796875 451.523438 C 134.941406 451.523438 137.089844 451.109375 138.480469 450.46875 L 139.15625 453.097656 "/>
<path style=" stroke:none;fill-rule:nonzero;fill:rgb(13.699341%,12.199402%,12.5%);fill-opacity:1;" d="M 148.578125 428.605469 L 148.578125 453.882813 L 145.078125 453.882813 L 145.078125 428.605469 L 148.578125 428.605469 "/>
<path style=" stroke:none;fill-rule:nonzero;fill:rgb(13.699341%,12.199402%,12.5%);fill-opacity:1;" d="M 170.042969 442.03125 L 159.667969 442.03125 L 159.667969 451.148438 L 171.277344 451.148438 L 171.277344 453.882813 L 156.171875 453.882813 L 156.171875 428.605469 L 170.679688 428.605469 L 170.679688 431.34375 L 159.667969 431.34375 L 159.667969 439.332031 L 170.042969 439.332031 L 170.042969 442.03125 "/>
<path style=" stroke:none;fill-rule:nonzero;fill:rgb(13.699341%,12.199402%,12.5%);fill-opacity:1;" d="M 177.359375 453.882813 L 177.359375 428.605469 L 181.175781 428.605469 L 189.722656 441.394531 C 191.671875 444.359375 193.261719 446.984375 194.492188 449.609375 L 194.609375 449.570313 C 194.292969 446.195313 194.214844 443.121094 194.214844 439.21875 L 194.214844 428.605469 L 197.472656 428.605469 L 197.472656 453.882813 L 193.976563 453.882813 L 185.46875 441.058594 C 183.601563 438.246094 181.8125 435.355469 180.5 432.617188 L 180.378906 432.65625 C 180.578125 435.84375 180.617188 438.882813 180.617188 443.082031 L 180.617188 453.882813 L 177.359375 453.882813 "/>
<path style=" stroke:none;fill-rule:nonzero;fill:rgb(13.699341%,12.199402%,12.5%);fill-opacity:1;" d="M 223.789063 453.097656 C 222.558594 453.695313 219.972656 454.296875 216.714844 454.296875 C 209.160156 454.296875 203.515625 449.796875 203.515625 441.46875 C 203.515625 433.519531 209.199219 428.195313 217.507813 428.195313 C 220.808594 428.195313 222.953125 428.867188 223.867188 429.320313 L 222.996094 431.980469 C 221.722656 431.382813 219.855469 430.929688 217.628906 430.929688 C 211.347656 430.929688 207.171875 434.71875 207.171875 441.355469 C 207.171875 447.582031 210.949219 451.523438 217.429688 451.523438 C 219.574219 451.523438 221.722656 451.109375 223.113281 450.46875 L 223.789063 453.097656 "/>
<path style=" stroke:none;fill-rule:nonzero;fill:rgb(13.699341%,12.199402%,12.5%);fill-opacity:1;" d="M 243.585938 442.03125 L 233.210938 442.03125 L 233.210938 451.148438 L 244.820313 451.148438 L 244.820313 453.882813 L 229.714844 453.882813 L 229.714844 428.605469 L 244.222656 428.605469 L 244.222656 431.34375 L 233.210938 431.34375 L 233.210938 439.332031 L 243.585938 439.332031 L 243.585938 442.03125 "/>
<path style=" stroke:none;fill-rule:nonzero;fill:rgb(13.699341%,12.199402%,12.5%);fill-opacity:1;" d="M 271.375 454.296875 C 264.257813 454.296875 259.328125 449.121094 259.328125 441.46875 C 259.328125 433.445313 264.574219 428.195313 271.730469 428.195313 C 279.085938 428.195313 283.816406 433.480469 283.816406 440.980469 C 283.816406 449.644531 278.210938 454.296875 271.414063 454.296875 L 271.375 454.296875 M 271.53125 451.632813 C 277.019531 451.632813 280.121094 446.871094 280.121094 441.132813 C 280.121094 436.105469 277.335938 430.855469 271.570313 430.855469 C 265.808594 430.855469 262.945313 435.917969 262.945313 441.394531 C 262.945313 446.71875 266.046875 451.632813 271.492188 451.632813 L 271.53125 451.632813 "/>
<path style=" stroke:none;fill-rule:nonzero;fill:rgb(13.699341%,12.199402%,12.5%);fill-opacity:1;" d="M 289.859375 428.605469 L 304.289063 428.605469 L 304.289063 431.34375 L 293.355469 431.34375 L 293.355469 439.746094 L 303.453125 439.746094 L 303.453125 442.445313 L 293.355469 442.445313 L 293.355469 453.882813 L 289.859375 453.882813 L 289.859375 428.605469 "/>
<path style=" stroke:none;fill-rule:nonzero;fill:rgb(13.699341%,12.199402%,12.5%);fill-opacity:1;" d="M 22.628906 473.609375 L 22.628906 498.886719 L 19.179688 498.886719 L 19.179688 473.609375 L 22.628906 473.609375 "/>
<path style=" stroke:none;fill-rule:nonzero;fill:rgb(13.699341%,12.199402%,12.5%);fill-opacity:1;" d="M 50.851563 487.785156 C 50.65625 484.261719 50.421875 479.984375 50.421875 476.871094 L 50.34375 476.871094 C 49.402344 479.796875 48.34375 482.984375 47.011719 486.472656 L 42.34375 498.738281 L 39.757813 498.738281 L 35.445313 486.699219 C 34.191406 483.097656 33.171875 479.871094 32.425781 476.871094 L 32.347656 476.871094 C 32.269531 480.023438 32.074219 484.222656 31.839844 488.046875 L 31.132813 498.886719 L 27.882813 498.886719 L 29.722656 473.609375 L 34.074219 473.609375 L 38.582031 485.835938 C 39.679688 488.949219 40.542969 491.726563 41.246094 494.351563 L 41.328125 494.351563 C 42.03125 491.800781 42.972656 489.023438 44.148438 485.835938 L 48.851563 473.609375 L 53.203125 473.609375 L 54.847656 498.886719 L 51.476563 498.886719 L 50.851563 487.785156 "/>
<path style=" stroke:none;fill-rule:nonzero;fill:rgb(13.699341%,12.199402%,12.5%);fill-opacity:1;" d="M 60.101563 473.949219 C 61.75 473.648438 63.90625 473.421875 66.648438 473.421875 C 70.019531 473.421875 72.488281 474.171875 74.058594 475.523438 C 75.507813 476.722656 76.410156 478.558594 76.410156 480.808594 C 76.410156 483.097656 75.703125 484.898438 74.332031 486.210938 C 72.527344 488.046875 69.589844 488.984375 66.257813 488.984375 C 65.238281 488.984375 64.296875 488.949219 63.511719 488.761719 L 63.511719 498.886719 L 60.101563 498.886719 L 60.101563 473.949219 M 63.511719 486.097656 C 64.257813 486.285156 65.238281 486.359375 66.335938 486.359375 C 70.488281 486.359375 72.960938 484.410156 72.960938 480.996094 C 72.960938 477.621094 70.488281 476.011719 66.726563 476.011719 C 65.238281 476.011719 64.101563 476.160156 63.511719 476.273438 L 63.511719 486.097656 "/>
<path style=" stroke:none;fill-rule:nonzero;fill:rgb(13.699341%,12.199402%,12.5%);fill-opacity:1;" d="M 80.957031 473.984375 C 82.679688 473.648438 85.191406 473.421875 87.503906 473.421875 C 91.148438 473.421875 93.539063 474.097656 95.183594 475.523438 C 96.480469 476.609375 97.261719 478.335938 97.261719 480.324219 C 97.261719 483.621094 95.027344 485.835938 92.285156 486.734375 L 92.285156 486.847656 C 94.285156 487.523438 95.5 489.324219 96.164063 491.949219 C 97.027344 495.476563 97.65625 497.914063 98.164063 498.886719 L 94.636719 498.886719 C 94.207031 498.175781 93.617188 496 92.910156 492.851563 C 92.128906 489.363281 90.675781 488.046875 87.582031 487.9375 L 84.367188 487.9375 L 84.367188 498.886719 L 80.957031 498.886719 L 80.957031 473.984375 M 84.367188 485.460938 L 87.855469 485.460938 C 91.5 485.460938 93.8125 483.546875 93.8125 480.660156 C 93.8125 477.398438 91.34375 475.972656 87.738281 475.972656 C 86.089844 475.972656 84.953125 476.121094 84.367188 476.273438 L 84.367188 485.460938 "/>
<g clip-path="url(#clip2)" clip-rule="nonzero">
<path style=" stroke:none;fill-rule:nonzero;fill:rgb(13.699341%,12.199402%,12.5%);fill-opacity:1;" d="M 112.472656 499.300781 C 105.453125 499.300781 100.59375 494.125 100.59375 486.472656 C 100.59375 478.449219 105.769531 473.199219 112.824219 473.199219 C 120.074219 473.199219 124.742188 478.484375 124.742188 485.984375 C 124.742188 494.648438 119.214844 499.300781 112.511719 499.300781 L 112.472656 499.300781 M 112.628906 496.636719 C 118.039063 496.636719 121.09375 491.875 121.09375 486.136719 C 121.09375 481.109375 118.351563 475.859375 112.667969 475.859375 C 106.984375 475.859375 104.160156 480.921875 104.160156 486.398438 C 104.160156 491.726563 107.21875 496.636719 112.589844 496.636719 L 112.628906 496.636719 "/>
</g>
<path style=" stroke:none;fill-rule:nonzero;fill:rgb(13.699341%,12.199402%,12.5%);fill-opacity:1;" d="M 134.972656 498.886719 L 126.308594 473.609375 L 130.03125 473.609375 L 134.148438 486.0625 C 135.246094 489.472656 136.226563 492.585938 136.972656 495.511719 L 137.050781 495.511719 C 137.792969 492.585938 138.851563 489.398438 140.066406 486.097656 L 144.535156 473.609375 L 148.183594 473.609375 L 138.734375 498.886719 L 134.972656 498.886719 "/>
<path style=" stroke:none;fill-rule:nonzero;fill:rgb(13.699341%,12.199402%,12.5%);fill-opacity:1;" d="M 154.453125 473.609375 L 154.453125 498.886719 L 151.003906 498.886719 L 151.003906 473.609375 L 154.453125 473.609375 "/>
<path style=" stroke:none;fill-rule:nonzero;fill:rgb(13.699341%,12.199402%,12.5%);fill-opacity:1;" d="M 160.410156 498.886719 L 160.410156 473.609375 L 164.175781 473.609375 L 172.601563 486.398438 C 174.523438 489.363281 176.09375 491.988281 177.308594 494.613281 L 177.425781 494.574219 C 177.109375 491.199219 177.03125 488.125 177.03125 484.222656 L 177.03125 473.609375 L 180.246094 473.609375 L 180.246094 498.886719 L 176.796875 498.886719 L 168.40625 486.0625 C 166.566406 483.246094 164.804688 480.359375 163.507813 477.621094 L 163.390625 477.660156 C 163.585938 480.847656 163.625 483.886719 163.625 488.085938 L 163.625 498.886719 L 160.410156 498.886719 "/>
<g clip-path="url(#clip3)" clip-rule="nonzero">
<path style=" stroke:none;fill-rule:nonzero;fill:rgb(13.699341%,12.199402%,12.5%);fill-opacity:1;" d="M 206.355469 497.761719 C 204.824219 498.324219 201.765625 499.148438 198.199219 499.148438 C 194.199219 499.148438 190.90625 498.175781 188.320313 495.8125 C 186.046875 493.710938 184.636719 490.335938 184.636719 486.398438 C 184.636719 478.859375 190.085938 473.347656 198.945313 473.347656 C 202.003906 473.347656 204.433594 473.984375 205.570313 474.511719 L 204.707031 477.171875 C 203.296875 476.535156 201.53125 476.085938 198.867188 476.085938 C 192.4375 476.085938 188.242188 479.910156 188.242188 486.25 C 188.242188 492.664063 192.242188 496.449219 198.433594 496.449219 C 200.667969 496.449219 202.199219 496.148438 202.980469 495.773438 L 202.980469 488.234375 L 197.652344 488.234375 L 197.652344 485.609375 L 206.355469 485.609375 L 206.355469 497.761719 "/>
</g>
<path style=" stroke:none;fill-rule:nonzero;fill:rgb(13.699341%,12.199402%,12.5%);fill-opacity:1;" d="M 219.796875 473.609375 L 223.246094 473.609375 L 223.246094 496.148438 L 234.535156 496.148438 L 234.535156 498.886719 L 219.796875 498.886719 L 219.796875 473.609375 "/>
<path style=" stroke:none;fill-rule:nonzero;fill:rgb(13.699341%,12.199402%,12.5%);fill-opacity:1;" d="M 241.75 473.609375 L 241.75 498.886719 L 238.300781 498.886719 L 238.300781 473.609375 L 241.75 473.609375 "/>
<path style=" stroke:none;fill-rule:nonzero;fill:rgb(13.699341%,12.199402%,12.5%);fill-opacity:1;" d="M 253.507813 498.886719 L 244.847656 473.609375 L 248.570313 473.609375 L 252.6875 486.0625 C 253.78125 489.472656 254.761719 492.585938 255.507813 495.511719 L 255.585938 495.511719 C 256.332031 492.585938 257.390625 489.398438 258.605469 486.097656 L 263.074219 473.609375 L 266.71875 473.609375 L 257.269531 498.886719 L 253.507813 498.886719 "/>
<path style=" stroke:none;fill-rule:nonzero;fill:rgb(13.699341%,12.199402%,12.5%);fill-opacity:1;" d="M 283.222656 487.035156 L 272.992188 487.035156 L 272.992188 496.148438 L 284.4375 496.148438 L 284.4375 498.886719 L 269.539063 498.886719 L 269.539063 473.609375 L 283.847656 473.609375 L 283.847656 476.347656 L 272.992188 476.347656 L 272.992188 484.335938 L 283.222656 484.335938 L 283.222656 487.035156 "/>
<g clip-path="url(#clip4)" clip-rule="nonzero">
<path style=" stroke:none;fill-rule:nonzero;fill:rgb(13.699341%,12.199402%,12.5%);fill-opacity:1;" d="M 288.433594 494.914063 C 289.964844 495.851563 292.160156 496.5625 294.511719 496.5625 C 298 496.5625 300.039063 494.835938 300.039063 492.25 C 300.039063 489.925781 298.628906 488.535156 295.058594 487.261719 C 290.746094 485.761719 288.082031 483.585938 288.082031 480.058594 C 288.082031 476.121094 291.492188 473.199219 296.628906 473.199219 C 299.292969 473.199219 301.292969 473.796875 302.429688 474.433594 L 301.488281 477.097656 C 300.664063 476.609375 298.902344 475.898438 296.511719 475.898438 C 292.902344 475.898438 291.53125 477.960938 291.53125 479.683594 C 291.53125 482.046875 293.140625 483.210938 296.785156 484.5625 C 301.253906 486.25 303.488281 488.273438 303.488281 491.988281 C 303.488281 495.886719 300.507813 499.300781 294.273438 499.300781 C 291.726563 499.300781 288.945313 498.550781 287.53125 497.648438 L 288.433594 494.914063 "/>
</g>
</g>
</svg>
