<?xml version="1.0" encoding="utf-8"?>
<!-- Generator: Adobe Illustrator 19.0.0, SVG Export Plug-In . SVG Version: 6.00 Build 0)  -->
<svg version="1.1" id="layer" xmlns="http://www.w3.org/2000/svg" xmlns:xlink="http://www.w3.org/1999/xlink" x="0px" y="0px"
	 viewBox="-153 -46 652 652" style="enable-background:new -153 -46 652 652;" xml:space="preserve">
<style type="text/css">
	.st0{fill:#62BB46;}
	.st1{fill:#FFFFFF;}
</style>
<rect x="-254.7" y="25" class="st0" width="845.5" height="500"/>
<g>
	<rect x="61" y="95.3" class="st1" width="5.5" height="44.1"/>
	<polygon class="st1" points="77.2,93.2 110.2,127.8 110.2,95.3 115.7,95.3 115.7,141.1 82.6,106.5 82.6,139.3 77.2,139.3 	"/>
	<polygon class="st1" points="138.3,139.3 132.8,139.3 132.8,100.3 122.4,100.3 122.4,95.3 148.8,95.3 148.8,100.3 138.3,100.3 	"/>
	<polygon class="st1" points="156,95.3 179.7,95.3 179.7,100.3 161.5,100.3 161.5,112.6 179.2,112.6 179.2,117.7 161.5,117.7 
		161.5,134.3 179.7,134.3 179.7,139.3 156,139.3 	"/>
	<g>
		<path class="st1" d="M194.9,116.1h1.7c5.6,0,11.7-1.1,11.7-8.1c0-6.9-6.5-7.9-12-7.9h-1.5V116.1z M216.8,139.3h-6.7l-13-18.6h-2.3
			v18.6h-5.5V95.3h6.7c3.9,0,8.1,0.1,11.6,2c3.7,2.2,5.8,6.3,5.8,10.5c0,6.3-4.2,11.6-10.6,12.3L216.8,139.3z"/>
	</g>
	<polygon class="st1" points="223.5,93.2 256.6,127.8 256.6,95.3 262.1,95.3 262.1,141.1 229,106.5 229,139.3 223.5,139.3 	"/>
	<path class="st1" d="M289.2,105.5l-7.8,17.8H297L289.2,105.5z M279.1,128.3l-5,11h-5.9l21-45.9l21,45.9h-5.9l-5-11H279.1z"/>
	<polygon class="st1" points="324,139.3 318.5,139.3 318.5,100.3 308.1,100.3 308.1,95.3 334.5,95.3 334.5,100.3 324,100.3 	"/>
	<rect x="341.6" y="95.3" class="st1" width="5.5" height="44.1"/>
	<g>
		<path class="st1" d="M395.8,117.3c0-9.7-7.2-17.8-17.6-17.8c-10.3,0-17.6,8.1-17.6,17.8c0,10.1,8.1,17.8,17.6,17.8
			C387.7,135.1,395.8,127.4,395.8,117.3 M401.3,117.3c0,13.1-10.3,23-23.1,23c-12.7,0-23.1-9.9-23.1-23c0-12.6,10.5-23,23.1-23
			C390.8,94.4,401.3,104.7,401.3,117.3"/>
	</g>
	<polygon class="st1" points="409,93.2 442.1,127.8 442.1,95.3 447.5,95.3 447.5,141.1 414.5,106.5 414.5,139.3 409,139.3 	"/>
	<path class="st1" d="M474.7,105.5l-7.8,17.8h15.7L474.7,105.5z M464.5,128.3l-5,11h-5.9l21-45.9l21,45.9h-5.9l-5-11H464.5z"/>
	<polygon class="st1" points="507.8,134.3 521.2,134.3 521.2,139.3 502.3,139.3 502.3,95.3 507.8,95.3 	"/>
	<polygon class="st1" points="66.6,174.9 66.6,187.3 81.9,187.3 81.9,192.3 66.6,192.3 66.6,213.9 61.1,213.9 61.1,169.9 
		82.5,169.9 82.5,174.9 	"/>
	<g>
		<path class="st1" d="M129.4,191.9c0-9.7-7.2-17.8-17.6-17.8s-17.6,8.1-17.6,17.8c0,10.1,8.1,17.8,17.6,17.8S129.4,202,129.4,191.9
			 M134.9,191.9c0,13.1-10.3,23-23.1,23s-23.1-9.9-23.1-23c0-12.6,10.5-23,23.1-23S134.9,179.3,134.9,191.9"/>
		<path class="st1" d="M180.7,191.9c0-9.7-7.2-17.8-17.6-17.8c-10.3,0-17.6,8.1-17.6,17.8c0,10.1,8.1,17.8,17.6,17.8
			S180.7,202,180.7,191.9 M186.2,191.9c0,13.1-10.3,23-23.1,23s-23.1-9.9-23.1-23c0-12.6,10.5-23,23.1-23
			C175.7,168.9,186.2,179.3,186.2,191.9"/>
		<path class="st1" d="M199.4,208.9h1.9c11.2,0,20.9-4.2,20.9-17c0-12.9-9.7-17-20.9-17h-1.9V208.9z M194,169.9h9.1
			c13.5,0,24.7,7.1,24.7,21.8c0,15-11,22.3-24.9,22.3H194V169.9z"/>
		<path class="st1" d="M261.5,190.6h1.7c5.6,0,11.7-1.1,11.7-8.1c0-6.9-6.5-7.7-12-7.7h-1.5V190.6z M261.5,213.9H256v-44.1h6.3
			c13.6,0,17.8,4.7,17.8,12.7c0,9.3-7.1,12.9-15.4,12.9h-3.2V213.9z"/>
		<path class="st1" d="M325.4,191.9c0-9.7-7.2-17.8-17.6-17.8c-10.3,0-17.6,8.1-17.6,17.8c0,10.1,8.1,17.8,17.6,17.8
			S325.4,202,325.4,191.9 M330.9,191.9c0,13.1-10.3,23-23.1,23c-12.7,0-23.1-9.9-23.1-23c0-12.6,10.5-23,23.1-23
			S330.9,179.3,330.9,191.9"/>
	</g>
	<polygon class="st1" points="344.6,208.9 358,208.9 358,213.9 339.2,213.9 339.2,169.9 344.6,169.9 	"/>
	<rect x="364.4" y="169.9" class="st1" width="5.5" height="44.1"/>
	<g>
		<path class="st1" d="M413.1,178.3c-3.2-2.8-7.5-4.3-11.6-4.3c-9.9,0-17.4,8.2-17.4,18c0,9.6,7.5,17.9,17.3,17.9
			c4.3,0,8.5-1.6,11.7-4.6v6.5c-3.4,2-7.7,3.1-11.6,3.1c-12.6,0-23-10-23-22.7c0-13,10.5-23.2,23.4-23.2c3.9,0,7.8,0.9,11.1,3V178.3
			z"/>
	</g>
	<polygon class="st1" points="418,169.9 424.3,169.9 435.2,188.7 446,169.9 452.3,169.9 437.9,194.8 437.9,213.9 432.4,213.9 
		432.4,194.8 	"/>
	<g>
		<path class="st1" d="M66.7,265.3h1.8c5.6,0,11.7-1.1,11.7-8.1c0-6.9-6.5-7.9-12-7.9h-1.5V265.3z M88.6,288.5h-6.7l-13-18.6h-2.3
			v18.6h-5.5v-44.1h6.7c3.9,0,8.1,0.1,11.6,2c3.7,2.2,5.8,6.3,5.8,10.5c0,6.3-4.2,11.6-10.6,12.3L88.6,288.5z"/>
	</g>
	<polygon class="st1" points="95.9,244.5 119.5,244.5 119.5,249.5 101.3,249.5 101.3,261.8 119,261.8 119,266.8 101.3,266.8 
		101.3,283.5 119.5,283.5 119.5,288.5 95.9,288.5 	"/>
	<g>
		<path class="st1" d="M148.8,252.8c-1.6-2.7-3.7-4.1-7.1-4.1c-3.5,0-7.4,2.4-7.4,6.3c0,3.4,3.4,5.3,6.1,6.3l3.2,1.2
			c6.2,2.5,10.9,5.9,10.9,13.3c0,8-6.2,13.7-14.1,13.7c-7.1,0-12.7-5.3-13.6-12.3l5.6-1.2c-0.1,4.9,3.8,8.4,8.5,8.4
			c4.7,0,8.1-4,8.1-8.6c0-4.7-3.8-6.8-7.6-8.4l-3-1.3c-5-2.2-9.6-5-9.6-11.2c0-7.1,6.3-11.4,13-11.4c4.9,0,8.9,2.4,11.3,6.7
			L148.8,252.8z"/>
	</g>
	<polygon class="st1" points="163.5,244.5 187.2,244.5 187.2,249.5 169,249.5 169,261.8 186.6,261.8 186.6,266.8 169,266.8 
		169,283.5 187.2,283.5 187.2,288.5 163.5,288.5 	"/>
	<path class="st1" d="M213.2,254.6l-7.8,17.8h15.7L213.2,254.6z M203.1,277.5l-5,11h-5.9l21-45.9l21,45.9h-5.9l-5-11H203.1z"/>
	<g>
		<path class="st1" d="M246.4,265.3h1.8c5.6,0,11.7-1.1,11.7-8.1c0-6.9-6.5-7.9-12-7.9h-1.5V265.3z M268.3,288.5h-6.7l-13-18.6h-2.3
			v18.6h-5.5v-44.1h6.7c3.9,0,8.1,0.1,11.6,2c3.7,2.2,5.8,6.3,5.8,10.5c0,6.3-4.2,11.6-10.6,12.3L268.3,288.5z"/>
		<path class="st1" d="M307.6,252.9c-3.2-2.8-7.5-4.3-11.6-4.3c-9.9,0-17.4,8.2-17.4,18c0,9.6,7.5,17.9,17.3,17.9
			c4.3,0,8.5-1.6,11.7-4.6v6.5c-3.4,2-7.7,3.1-11.6,3.1c-12.6,0-23-10-23-22.7c0-13,10.5-23.2,23.4-23.2c3.9,0,7.8,0.9,11.1,3V252.9
			z"/>
	</g>
	<polygon class="st1" points="343.1,262.2 343.1,244.5 348.6,244.5 348.6,288.5 343.1,288.5 343.1,267.4 322.1,267.4 322.1,288.5 
		316.6,288.5 316.6,244.5 322.1,244.5 322.1,262.2 	"/>
	<rect x="61" y="319.1" class="st1" width="5.5" height="44.1"/>
	<polygon class="st1" points="77.2,317 110.2,351.6 110.2,319.1 115.7,319.1 115.7,364.9 82.6,330.3 82.6,363.1 77.2,363.1 	"/>
	<g>
		<path class="st1" d="M146,327.4c-1.6-2.7-3.7-4.1-7.1-4.1c-3.5,0-7.4,2.4-7.4,6.3c0,3.4,3.4,5.3,6.1,6.3l3.2,1.2
			c6.3,2.5,10.9,5.9,10.9,13.3c0,8-6.2,13.7-14.1,13.7c-7.1,0-12.7-5.3-13.6-12.3l5.5-1.2c-0.1,4.8,3.8,8.4,8.5,8.4
			c4.7,0,8.1-4,8.1-8.6c0-4.7-3.8-6.8-7.6-8.4l-3-1.3c-5-2.2-9.6-5-9.6-11.2c0-7.1,6.3-11.4,13-11.4c4.9,0,8.9,2.4,11.3,6.7
			L146,327.4z"/>
	</g>
	<polygon class="st1" points="172.6,363.1 167.1,363.1 167.1,324.1 156.7,324.1 156.7,319.1 183.1,319.1 183.1,324.1 172.6,324.1 	
		"/>
	<rect x="190.2" y="319.1" class="st1" width="5.5" height="44.1"/>
	<polygon class="st1" points="218.7,363.1 213.2,363.1 213.2,324.1 202.7,324.1 202.7,319.1 229.1,319.1 229.1,324.1 218.7,324.1 	
		"/>
	<g>
		<path class="st1" d="M241.1,319.1v26c0,7.2,2.2,13.8,10.6,13.8c8.5,0,10.6-6.7,10.6-13.8v-26h5.5v27.9c0,9.7-6,17.1-16.1,17.1
			c-10.1,0-16.1-7.4-16.1-17.1v-27.9H241.1z"/>
	</g>
	<polygon class="st1" points="290.2,363.1 284.8,363.1 284.8,324.1 274.3,324.1 274.3,319.1 300.7,319.1 300.7,324.1 290.2,324.1 	
		"/>
	<polygon class="st1" points="308,319.1 331.6,319.1 331.6,324.1 313.4,324.1 313.4,336.4 331.1,336.4 331.1,341.4 313.4,341.4 
		313.4,358.1 331.6,358.1 331.6,363.1 308,363.1 	"/>
	<g>
		<path class="st1" d="M-186.5,456.3c1.6-0.9,2.5-2.2,2.5-4.4v-57.5c0-2.2-1-3.6-2.5-4.4h17.6c-1.7,0.8-2.5,2.1-2.5,4.4v57.5
			c0,2.1,0.9,3.5,2.5,4.4H-186.5z"/>
		<path class="st1" d="M-126.6,395.3c-3,0-18.8-0.4-18.8-0.4v22.4h15.2c1.6,0,3.1-1.6,3.6-2.7v10.3c-0.5-1.4-2-2.8-3.6-2.8h-15.2
			v29.8c0,2.3,1,3.4,2.8,4.4h-18.1c1.8-1,2.9-2,2.9-4.4v-57.5c0-2.2-1.2-3.6-2.9-4.4h41.4l0.5,9.4
			C-120,397.1-122.1,395.4-126.6,395.3"/>
		<path class="st1" d="M-96.2,394.6c-2.9,0-5,0.1-5,0.1v27.4c0.5,0.3,2.4,0.5,3.8,0.5c5.2,0,15-1.9,15-14.4
			C-82.3,400.8-86.5,394.6-96.2,394.6 M-81.8,425.4c-3.2,1.5-11.9,3.4-19.4,0.7v25.8c0,2.1,1.1,3.5,2.5,4.4h-17.6
			c1.6-0.9,2.7-2.2,2.7-4.4v-57.5c0-2.2-1.2-3.6-2.7-4.4h22.1c19.6,0,24.4,10.1,24.4,18.1C-69.8,418.8-78.9,424.1-81.8,425.4"/>
		<path class="st1" d="M-44.4,394.7c-2.9,0-5.6,0.2-5.6,0.2v25.4c0,0,2.7,0.2,4.4,0.2c6.6,0,13.6-3.7,13.6-13.5
			C-32,402.5-34.7,394.7-44.4,394.7 M-15.9,456.5c-3.7,0.1-6.9-2.2-8.7-4.6c-4.4-6.1-8.7-13.2-12.2-18.7c-2.5-3.9-4.8-8.1-9-8.1
			c-1.2,0-4.3,0.2-4.3,0.2v26.6c0,2.1,1.1,3.5,2.7,4.4h-17.6c1.6-0.9,2.5-2.2,2.5-4.4v-57.5c0-2.2-1-3.6-2.5-4.4h21
			c20.2,0,24.7,9.8,24.7,16.4c0,10.5-9.5,15.8-16.5,16.3c6.6,0.7,9.5,5.2,11,7.3c0,0,11.8,18.4,15.1,22.4c2,2.2,6.2,3.9,6.2,3.9
			L-15.9,456.5z"/>
		<path class="st1" d="M-7.4,456.3c1.6-0.9,2.5-2.2,2.5-4.4v-57.5c0-2.2-1-3.6-2.5-4.4h17.6c-1.7,0.8-2.5,2.1-2.5,4.4v57.5
			c0,2.1,0.9,3.5,2.5,4.4H-7.4z"/>
		<path class="st1" d="M-53.2,313.7c-10.1,0-18.3-8.4-18.3-18.8c0-10.4,8.2-18.8,18.3-18.8c10.1,0,18.3,8.4,18.3,18.8
			C-34.9,305.3-43.1,313.7-53.2,313.7 M-115.3,202.8c0-8.6,6.8-15.5,15.2-15.5c8.4,0,15.2,7,15.2,15.5c0,8.5-6.8,15.5-15.2,15.5
			C-108.5,218.4-115.3,211.4-115.3,202.8 M-152.7,122.9c0-6.9,5.5-12.4,12.3-12.4c6.8,0,12.3,5.6,12.3,12.4
			c0,6.9-5.5,12.4-12.3,12.4C-147.1,135.3-152.7,129.8-152.7,122.9 M8.1,271.4V158.6c-48.9,23-81.2,70.8-91.9,131.9
			c-7.6-8.3-16.5-16.6-25.6-23.7c22-58,61.4-96.6,117.5-111.6V95.5h-75.1c-32.4,20.4-53.8,55.8-61.5,99.6
			c-6.1-6.7-13.4-13.5-20.7-19.2c14.1-37.2,37.2-64.7,68.7-80.5H-184v11.6c16.2,11.7,29.4,26.5,38.9,44.7l-8.7,20.8
			c-2.6-1.9-9.7-6.5-9.7-6.5c-3.3-14.5-5.8-18.1-13.2-29.3c-2.3-4-4.8-7.8-7.3-11.3v37.8c35.1,16.3,62.1,40.3,79.7,73.6l-10.7,25.7
			c-3.2-2.4-12-8.1-12-8.1c-4-18-7.1-22.4-16.3-36.2c-10.8-19.3-24.7-33.9-40.6-45.1v62.6c55,16.8,97.3,49.9,125.6,100.7l-12.8,26.7
			h8.7C-46.2,324-23.1,293,8.1,271.4"/>
		<path class="st1" d="M-184,241v122.3h98.5C-103.6,303.2-137.3,263.8-184,241"/>
		<path class="st1" d="M8.1,363.3v-63.6C-6,318.9-16.7,339.9-24,363.3H8.1z"/>
	</g>
</g>
</svg>
