<svg width="205" height="180" xmlns="http://www.w3.org/2000/svg" xml:space="preserve" version="1.1">
 <title>Asset 3</title>

 <g>
  <title>Layer 1</title>
  <g id="Layer_2_1_">
   <g id="Layer_1-2">
    <path id="svg_1" fill="#009CDE" d="m250,42.7l-0.1,0l-8,41.8l-11,0l-10.4,-51l8.8,0l7.2,39.3l0.1,0l7.7,-39.3l11.4,0l7.6,39.3l0.1,0l7.5,-39.3l8.5,0l-10.5,51l-11.2,0l-7.7,-41.8z" class="st0"/>
    <path id="svg_2" fill="#009CDE" d="m292.6,46.2c7.7,0 16.5,4 16.5,19.3c0,15.8 -8.8,19.4 -16.5,19.4s-16.6,-3.7 -16.6,-19.4c0.1,-15.3 9,-19.3 16.6,-19.3zm0,32.4c5.8,0 7.2,-6.7 7.2,-13s-1.3,-12.9 -7.2,-12.9s-7.2,6.6 -7.2,12.9s1.4,13 7.2,13z" class="st0"/>
    <path id="svg_3" fill="#009CDE" d="m313.6,53c0,-2.1 -0.1,-4.1 -0.3,-6.2l8.2,0c0.1,2.3 0.3,4.6 0.3,6.9l0.1,0c1.1,-2.9 3.9,-7.4 9.6,-7.4c0.5,0 1,0.1 1.5,0.2l0,8.5c-0.8,-0.2 -1.7,-0.4 -2.5,-0.4c-3.7,0 -7.8,2.3 -7.8,9.3l0,20.6l-9,0l-0.1,-31.5z" class="st0"/>
    <path id="svg_4" fill="#009CDE" d="m336.9,29.7l9.1,0l0,54.7l-9.1,0l0,-54.7z" class="st0"/>
    <path id="svg_5" fill="#009CDE" d="m382.9,29.7l0,48.3c0,2.1 0.1,4.3 0.3,6.4l-8.5,0c-0.2,-1.9 -0.3,-3.9 -0.3,-5.8l-0.2,0c-1.5,3.2 -4.2,6.4 -10,6.4c-9.3,0 -13.2,-8.9 -13.2,-19.3c0,-12.3 4.9,-19.4 13,-19.4c4.2,-0.2 8,2.2 9.7,6l0.1,0l0,-22.6l9.1,0zm-16.3,48.6c5.3,0 7.1,-5.8 7.1,-12.8c0,-7.3 -2,-12.6 -7,-12.6s-6.8,4.9 -6.8,12.4c0.1,8.7 1.5,13 6.7,13z" class="st0"/>
    <path id="svg_6" fill="#009CDE" d="m409.8,33.5l9.4,0l0,20.7l15.1,0l0,-20.7l9.3,0l0,51l-9.3,0l0,-22.6l-15.1,0l0,22.5l-9.4,0l0,-50.9z" class="st0"/>
    <path id="svg_7" fill="#009CDE" d="m476.7,82.6c-3.5,1.6 -7.4,2.4 -11.2,2.4c-12.1,0 -17.4,-8.7 -17.4,-18.8c0,-11.2 5.9,-19.9 15.5,-19.9c8.1,0 15,4.7 15,20.1l0,1.8l-21.7,0c0,6.4 2.6,10.3 9.6,10.3c5.5,0 8.2,-1.7 9.9,-2.9l0.3,7zm-6.9,-20.2c0,-6.6 -2.2,-10 -6.3,-10c-4.8,0 -6.7,5 -6.7,10l13,0z" class="st0"/>
    <path id="svg_8" fill="#009CDE" d="m484.4,49c3.7,-1.8 7.8,-2.8 11.9,-2.8c11.7,0 14.4,5.7 14.4,15.1l0,16.4c0,2.2 0.2,4.4 0.5,6.6l-8.2,0c-0.4,-1.7 -0.6,-3.4 -0.5,-5.1l-0.1,0c-2.3,3.1 -5.1,5.7 -10.5,5.7c-5.8,0 -11.2,-4 -11.2,-11c0,-10.2 8.3,-12.8 19.8,-12.8l1.8,0l0,-1.4c0,-3.7 -1.8,-7.2 -7,-7.2c-3.7,0.1 -7.3,1.4 -10.3,3.7l-0.6,-7.2zm17.8,17l-0.8,0c-7.7,0 -12.3,1.6 -12.3,7.1c-0.2,3 2.1,5.6 5.1,5.8c0.2,0 0.5,0 0.7,0c5.4,0 7.4,-4 7.4,-10.7l0,-2.2l-0.1,0z" class="st0"/>
    <path id="svg_9" fill="#009CDE" d="m519,29.7l9,0l0,54.7l-9,0l0,-54.7z" class="st0"/>
    <path id="svg_10" fill="#009CDE" d="m538.4,39.1l9,-2.8l0,10.5l7.5,0l0,6.6l-7.5,0l0,19.6c0,4 1.5,5.2 4.1,5.2c1.2,0 2.4,-0.3 3.4,-0.8l0,6.4c-1.9,0.8 -4,1.2 -6.1,1.2c-6.7,0 -10.5,-3.1 -10.5,-11l0,-20.5l-6,0l0,-6.6l6,0l0,-7.8l0.1,0z" class="st0"/>
    <path id="svg_11" fill="#009CDE" d="m557.8,29.7l9,0l0,22l0.2,0c1.6,-2.3 3.7,-5.4 9.3,-5.4c8.5,0 11.1,6.3 11.1,13.9l0,24.2l-9,0l0,-22.5c0,-5.8 -1.5,-8.2 -5.2,-8.2c-4.7,0 -6.4,4 -6.4,8.8l0,21.9l-9,0l0,-54.7z" class="st0"/>
    <path id="svg_12" fill="#009CDE" d="m241.2,98c10.6,0 20.3,7.9 20.3,26.2s-9.7,26.2 -20.3,26.2s-20.3,-7.9 -20.3,-26.2s9.7,-26.2 20.3,-26.2zm0,45.3c5.9,0 10.7,-5 10.7,-19.1s-4.8,-19 -10.7,-19s-10.7,5 -10.7,19s4.8,19.1 10.7,19.1l0,0z" class="st0"/>
    <path id="svg_13" fill="#009CDE" d="m265.3,118.3c0,-2.1 -0.1,-4.1 -0.3,-6.2l8.2,0c0.1,2.3 0.3,4.6 0.3,6.9l0.1,0c1.1,-2.9 4,-7.4 9.6,-7.4c0.5,0 1,0.1 1.5,0.2l0,8.5c-0.8,-0.2 -1.7,-0.4 -2.6,-0.4c-3.7,0 -7.8,2.3 -7.8,9.3l0,20.6l-9,0l0,-31.5z" class="st0"/>
    <path id="svg_14" fill="#009CDE" d="m289.1,155.6c3.4,2 7.2,3.1 11.1,3.2c8.5,0 9.9,-5.9 9.9,-11.8l0,-3.6l-0.1,0c-1.5,2.9 -4,6.4 -9.9,6.4c-5.2,0 -13.1,-3.5 -13.1,-18.7c0,-10.4 3.7,-19.5 13.6,-19.5c5.5,0 8,3.1 9.9,6.4l0.3,0c0,-2 0.2,-3.9 0.3,-5.8l8.2,0c-0.1,2 -0.3,3.9 -0.3,5.9l0,27.7c0,11.8 -3.6,20.1 -17.4,20.1c-4.4,0 -8.8,-0.8 -12.9,-2.3l0.4,-8zm13.1,-12.5c5.7,0 8,-4.1 8,-12.6c0,-7.9 -3,-12.1 -7.3,-12c-4.8,0.1 -6.6,4.5 -6.6,12.1c0,8.8 2.8,12.5 5.9,12.5z" class="st0"/>
    <path id="svg_15" fill="#009CDE" d="m327,114.3c3.7,-1.9 7.8,-2.8 11.9,-2.8c11.7,0 14.4,5.7 14.4,15.1l0,16.4c0,2.2 0.2,4.4 0.5,6.6l-8.2,0c-0.4,-1.7 -0.6,-3.4 -0.5,-5.1l-0.1,0c-2.3,3.1 -5.1,5.7 -10.5,5.7c-5.8,0 -11.2,-4 -11.2,-11c0,-10.2 8.3,-12.8 19.8,-12.8l1.8,0l0,-1.4c0,-3.7 -1.8,-7.2 -7,-7.2c-3.7,0.1 -7.3,1.4 -10.3,3.7l-0.6,-7.2zm17.8,17l-0.8,0c-7.7,0 -12.3,1.6 -12.3,7.1c-0.2,3 2.1,5.6 5.1,5.8c0.2,0 0.4,0 0.7,0c5.4,0 7.4,-4 7.4,-10.7l-0.1,-2.2z" class="st0"/>
    <path id="svg_16" fill="#009CDE" d="m360.6,118.3c0,-2.1 -0.1,-4.1 -0.3,-6.2l8.5,0c0.1,1.9 0.3,3.9 0.3,5.8l0.1,0c1.3,-2.3 3.9,-6.3 10,-6.3c8.5,0 11.1,6.3 11.1,13.9l0,24.2l-9.1,0l0,-22.6c0,-5.8 -1.5,-8.2 -5.2,-8.2c-4.7,0 -6.4,4 -6.4,8.8l0,21.9l-9,0l0,-31.3z" class="st0"/>
    <path id="svg_17" fill="#009CDE" d="m397.2,96.1l9.4,0l0,8.9l-9.4,0l0,-8.9zm0.2,16l9,0l0,37.6l-9,0l0,-37.6z" class="st0"/>
    <path id="svg_18" fill="#009CDE" d="m413.5,141.9l16.1,-22.9l-15.6,0l0,-6.9l24.6,0l0,7.7l-15.8,23l16.3,0l0,6.9l-25.7,0l0,-7.8l0.1,0z" class="st0"/>
    <path id="svg_19" fill="#009CDE" d="m446,114.3c3.7,-1.9 7.8,-2.8 11.9,-2.8c11.7,0 14.4,5.7 14.4,15.1l0,16.4c0,2.2 0.2,4.4 0.5,6.6l-8.2,0c-0.4,-1.7 -0.6,-3.4 -0.5,-5.1l-0.1,0c-2.3,3.1 -5.1,5.7 -10.5,5.7c-5.8,0 -11.2,-4 -11.2,-11c0,-10.2 8.3,-12.8 19.8,-12.8l1.8,0l0,-1.4c0,-3.7 -1.8,-7.2 -7,-7.2c-3.7,0.1 -7.3,1.4 -10.3,3.7l-0.6,-7.2zm17.8,17l-0.8,0c-7.7,0 -12.3,1.6 -12.3,7.1c-0.2,3 2.1,5.6 5.1,5.8c0.2,0 0.4,0 0.7,0c5.4,0 7.4,-4 7.4,-10.7l0,-2.2l-0.1,0z" class="st0"/>
    <path id="svg_20" fill="#009CDE" d="m482.1,104.4l9,-2.8l0,10.5l7.5,0l0,6.6l-7.5,0l0,19.5c0,4 1.5,5.2 4.1,5.2c1.2,0 2.4,-0.2 3.4,-0.8l0,6.4c-1.9,0.9 -4,1.3 -6.1,1.2c-6.7,0 -10.5,-3.1 -10.5,-10.9l0,-20.6l-6,0l0,-6.6l6,0l0.1,-7.7z" class="st0"/>
    <path id="svg_21" fill="#009CDE" d="m504.1,96.1l9.3,0l0,8.9l-9.3,0l0,-8.9zm0.2,16l9.1,0l0,37.6l-9,0l-0.1,-37.6z" class="st0"/>
    <path id="svg_22" fill="#009CDE" d="m534.9,111.5c7.7,0 16.5,4 16.5,19.3c0,15.8 -8.8,19.4 -16.5,19.4s-16.6,-3.6 -16.6,-19.4c0.1,-15.2 9,-19.3 16.6,-19.3zm0,32.4c5.8,0 7.2,-6.7 7.2,-13s-1.3,-12.9 -7.2,-12.9s-7.2,6.6 -7.2,12.9s1.4,13 7.2,13z" class="st0"/>
    <path id="svg_23" fill="#009CDE" d="m558.6,118.3c0,-2.1 -0.1,-4.1 -0.3,-6.2l8.5,0c0.1,1.9 0.3,3.9 0.3,5.8l0.1,0c1.3,-2.3 3.9,-6.3 10,-6.3c8.5,0 11.1,6.3 11.1,13.9l0,24.2l-9,0l0,-22.6c0,-5.8 -1.5,-8.2 -5.2,-8.2c-4.7,0 -6.4,4 -6.4,8.8l0,21.9l-9,0l-0.1,-31.3z" class="st0"/>
    <g id="g640">
     <path fill="#009CDE" d="m165.9,33c3.9,4.7 10.7,7.4 14.7,12.1c-2.9,-13.8 -13.5,-25.1 -26.1,-27.8c6.2,4.6 7.5,11 11.4,15.7m-151.2,35c8.7,-18.9 21.6,-14.9 27.1,-32.8c-3.2,5.4 -17.3,7.7 -23.8,21.8c3.4,-8.4 1.7,-21.2 7.3,-28.2c-16.9,12.6 -9.7,32.8 -10.6,39.2m15.6,45.2c1.6,7.3 -3,18 4.3,28.1c-7.5,-8.4 -23.5,-10.6 -30,-23.4c8.1,31.3 29.3,24.9 38.8,31.7c-7.8,-11.3 -1.4,-18.8 -13.1,-36.4m-2.4,19.7c-4.7,-17.5 3.6,-23.6 -2.7,-40.4c-0.6,9.5 -7,14.1 -2.7,31.4c-7.5,-14.7 -19.1,-20.2 -22.5,-30.2c0.2,27.5 22.3,31.6 27.9,39.2m33.9,29.3c-6.5,-9 -2.1,-14.1 -20.3,-30.4c3.9,6 -0.1,13.5 12.2,25.1c-12,-7.1 -28.7,-4.1 -36.7,-13.6c13.8,26.4 38,15.6 44.8,18.9m88.5,-5.3c12.3,-11.7 8.3,-19.2 12.2,-25.1c-18.3,16.3 -13.8,21.4 -20.4,30.4c6.9,-3.3 31.1,7.5 44.8,-18.9c-7.9,9.6 -24.6,6.5 -36.6,13.6m19.1,-15.6c7.3,-10.1 2.7,-20.7 4.2,-28.1c-11.7,17.6 -5.3,25.1 -13.1,36.4c9.6,-6.8 30.7,-0.4 38.8,-31.7c-6.5,12.8 -22.4,15 -29.9,23.4m-29.2,22.2c-6.5,-1.7 -13.2,-2.8 -20,-3c-6.2,-0.1 -12.4,0.9 -18.2,3.1c-5.8,-2.2 -12,-3.2 -18.2,-3.1c-6.8,0.2 -13.5,1.3 -20,3c-11,2.9 -20.5,5.2 -28.8,1c7.9,7 17.2,9.6 30.6,8.1c11.1,-1.2 20.1,-6.8 30.6,-6.7l0.4,0c-6.6,3.3 -12.5,7.9 -17.3,13.5l5.1,0.7c0,0 5.3,-10.7 17.6,-13.5c12.3,2.8 17.6,13.5 17.6,13.5l5.1,-0.7c-4.8,-5.6 -10.7,-10.2 -17.3,-13.5l0.4,0c10.5,-0.1 19.5,5.5 30.6,6.7c13.4,1.4 22.6,-1.1 30.6,-8.1c-8.3,4.2 -17.8,1.9 -28.8,-1m-114.2,-90c-4.5,8.7 -11.6,10.7 -10.8,28.6c-3.8,-15.9 -12.9,-21.9 -12.8,-32c-6.3,26.6 10.5,29.7 14.9,40.9c-0.7,-16 9.5,-19.2 8.7,-37.5m6.3,-20.5c-1.6,2.2 -2.7,3.2 -6.9,6.6c-6.3,5 -10.7,12.1 -12.2,20c0.4,-9.8 -5.6,-23.8 -1.6,-34c-15.5,21.9 0.9,35 1.5,43c3.9,-15.3 13.2,-15.4 19.2,-35.6m158.5,26.6c-1.6,-7.9 -5.9,-15 -12.2,-20c-4.2,-3.5 -5.3,-4.4 -6.9,-6.6c6,20.2 15.3,20.3 19.3,35.6c0.6,-7.9 17,-21 1.5,-43c4,10.2 -2,24.2 -1.7,34m13.2,14.1c-3.4,10.1 -15,15.5 -22.5,30.2c4.3,-17.3 -2.1,-21.9 -2.7,-31.4c-6.3,16.8 2,22.9 -2.7,40.4c5.6,-7.6 27.7,-11.7 27.9,-39.2m-26,-20.2c-0.9,18.3 9.4,21.5 8.7,37.5c4.3,-11.1 21.2,-14.3 14.9,-40.9c0.1,10.2 -9,16.1 -12.8,32.1c0.8,-18.1 -6.2,-20 -10.8,-28.7m-139.9,-40.5c3.9,-4.7 5.2,-11.1 11.4,-15.7c-12.7,2.7 -23.3,13.9 -26.2,27.7c4,-4.7 10.9,-7.4 14.8,-12m124.2,2c5.5,18 18.4,14 27.1,32.8c-0.9,-6.3 6.3,-26.6 -10.6,-39c5.7,6.9 4,19.8 7.3,28.2c-6.6,-14.1 -20.7,-16.4 -23.8,-22m-44,10.3c-3.3,-1.4 -6.8,-2.3 -10.3,-2.8c0,0.8 0,1.5 0,2.3c3.3,0.5 6.5,1.4 9.5,2.6c0.4,-0.7 0.7,-1.4 0.8,-2.1m-2.6,-22.3l0.7,-0.6l-1.3,-0.6l-3.5,-0.1l-0.9,0.6l-2,-0.2l0,0.5c1.3,0.1 2.6,0.2 3.6,0.4l1.7,-0.1l1.7,0.1zm-6.6,74.6c0,-0.6 -0.8,-1.2 -1.9,-1.7l-0.2,0c0,0.5 -0.1,2.8 -0.1,4c1.3,-0.7 2.2,-1.3 2.2,-2.3m-40.1,-43.9c0.1,-0.4 0.2,-0.9 0.3,-1.3c-0.5,0.1 -0.9,0.2 -1.4,0.1l1.1,1.2zm-16.1,-16.1l8.2,8.2c-9.9,10.3 -15.5,24.1 -15.7,38.4l-11.6,0c0.2,-17.5 7,-34.1 19.1,-46.6m-5,63.8l-0.7,-0.1l-0.7,-0.7l-3.3,-0.3l1,1.4l-3,-0.6l0.8,-0.7l-0.7,-0.7l-2.2,0.9l-0.8,1.4l0.3,3.3l2.5,6l1.2,1.9l0.7,0.2l-1.9,-3.6l-0.4,-1.8l0.4,-0.4l-0.3,-1l1.1,0.2l1.8,2.6l0.4,0.2l0,-1.9l0.7,0.4l0.2,1l1.8,0.5l0.8,-0.6l0.3,0.2l0,1.4l0.8,1l1,0.2l2.2,3.6l1.3,0.4l0.4,-1.7c2.3,3.7 4.9,7.2 8,10.3l-8.2,8.2c-12.2,-12.3 -19.2,-28.8 -19.6,-46.1l11.6,0c0.1,5 1,10.1 2.5,14.9m11.4,-15c0,1.1 0.1,2.2 0.3,3.4l-1.4,0.3l-0.3,1.4l-3,3.8l0.1,5.2l-3,1l-1.7,0c-1.6,-4.9 -2.4,-9.9 -2.6,-15.1l11.6,0zm2.6,32.7l2.6,1.5l0.5,0.4l-1.9,1.9c-0.9,-0.9 -1.7,-1.8 -2.5,-2.8l1.3,-1zm10.6,-61.9l8.2,8.2c-1.7,1.9 -3.2,4 -4.3,6.3l-0.6,0l-1.2,0.3l-0.4,0l-1.2,1.1l1.6,-0.2l1.4,-0.3l-0.3,0.4l-1.2,0.8l-0.6,0l-1.8,1.4l-1.7,-0.2l-2.5,4.7l0.5,0.9l-1.4,1.6l-0.2,2l-5.2,0c0.1,-10.1 4,-19.7 10.9,-27m8.4,33.9l0.6,-0.3l1.5,1.1l-0.7,0.5l1.7,1.1l-0.1,-1.2l0.9,-1.5l1,1l1,1.4l-1.8,0.5l0.8,1.6l1.2,-0.7l-0.2,-0.5l0.9,-0.6l0.5,-2.5c0.7,1.5 1.6,2.9 2.7,4.1l-8.2,8.2c-4,-4.2 -6.5,-9.6 -7.2,-15.4l1.7,1.8l1.6,0l2.1,1.4zm-11.8,-8.7l0.2,-2.3l1.4,-0.8l2.5,0.4l0.4,0.4c-0.2,1.3 -0.3,2.7 -0.4,4l-2.8,0l-1.3,-1.7zm-3.8,8l-1.1,1.7l-1.9,0l-0.1,-0.1c-0.3,-1.8 -0.5,-3.7 -0.6,-5.5l3.5,0l-0.8,2.8l1,1.1zm7.7,22.6c-0.8,-0.9 -1.7,-1.8 -2.4,-2.7l0.4,-2.9l-1.2,-2.8l-0.3,-4.4l-1.4,-2.7l0.3,-1.7l-1.7,-3.2l-1.4,-0.7l0.6,-1.7l-0.6,-1.3l0.6,-1.5l1.6,0l0.6,-0.9l2.7,0l0.4,0.8l-0.6,2.7l-0.3,0.5l1,2.2l-0.7,0.4l-0.5,-0.6l-0.2,0.2l0.5,1.3l0.8,1.5l0.4,0l0.2,-1.4l-0.4,-0.5l0,-0.9l-0.1,-1.9l0.6,-3.4l-0.6,-0.9l1.9,0c0.4,6.9 3.2,13.4 8,18.4l-8.2,8.1zm69.8,11.2c9.9,-10.2 15.6,-23.7 15.9,-37.8l11.6,0c-0.4,17.2 -7.3,33.7 -19.4,46l-8.1,-8.2zm-3.2,-3.2l0.9,-1l-0.9,-4.5l-0.6,-0.2l0.4,-0.8l-1.9,-0.6l-0.4,1.6l-0.2,2l-0.4,0.4l-3.5,-3.5c7.3,-7.6 11.5,-17.5 11.9,-28l11.6,0c-0.4,13.6 -5.8,26.5 -15.3,36.2l-1.6,-1.6zm-10.2,10.9l1.1,-2.3l-0.4,-1l1.6,-1.4l0,-0.8l-1.4,-0.9l1.1,-2.3l1.7,-2.2l-1.7,-1.8l-1.3,0l-0.8,-1.3c0.7,-0.6 1.4,-1.2 2,-1.8l8.2,8.2c-3,2.9 -6.4,5.5 -10.1,7.6m-1.6,-22.6l-1.1,-1.1l0.8,-1.1l1.1,-2.2l-0.4,-0.6l0.7,-1.6l-0.1,-1.5l-0.4,-1.5l-1,-0.3l-0.4,0.8l-0.6,-0.2c0.9,-1.3 1.7,-2.8 2.4,-4.2l1,-0.4l0.6,-0.8l0.3,0.3l0.7,-0.8l-0.6,-0.7l0.5,-0.1l0.9,0.4l1.8,0l1.1,-0.6l2.8,-0.8l-0.5,-0.9l-0.2,-1.1l1.5,0.7l0.6,-0.3l-0.3,-1.2l-1.9,0.7l-2,-0.4l-1.6,-3.2l8.9,0c-0.4,9.9 -4.4,19.3 -11.2,26.4l-1.2,-1.2l0.5,-1.6l-0.9,-3.6l-1.8,2.7zm-4.2,-43.6l8.2,-8.2c1.9,2.1 3.6,4.4 5.1,6.8l-1,0.3l0.1,1.8l3,1.9c0.8,1.7 1.4,3.4 1.9,5.2l-0.5,0.8l-1.1,0.8l-0.3,1.7l-0.8,0.4l-0.6,0.8l-0.6,-0.3l-1.1,0l0.6,-0.9l0.5,-2.3l0.8,-0.5l-2.2,-2.1l-1.6,0.6l-0.4,1.6l-1,1.1l-1.1,-0.9l-0.4,-1l0.6,-0.4l0.3,0.6l0.5,-0.2l-0.2,-1l-0.7,0l0,0.4l-0.5,0.1l-2.5,-3l-0.9,-0.7l0.3,-0.3l0.8,-0.3l-0.8,-0.3c0,0 -0.9,0.2 -1,0.2l0.5,0.7l-1.3,0c-0.8,-1.3 -1.6,-2.4 -2.6,-3.4m1.3,44.7l-2.5,-0.7l-0.8,0.3l-1.4,-1.1l-1.3,-0.5c0.7,-0.5 1.3,-1 1.9,-1.5l2.1,1.5l1.6,0.8l0.8,0.8l-0.4,0.4zm-4.4,-38.5l1,-0.2l0,-0.2l-1,-0.7l0.3,-2.2l1.2,-1.3c0.8,0.9 1.5,1.8 2.2,2.8l-0.4,1.3l-1.1,-0.8l-0.9,0.2l0.4,0.8l0.4,0l-0.5,1.2l-0.3,-0.5l-1.3,-0.4zm13.9,8l2.1,-1.1l2.1,-0.3l0.5,-1l1.2,-0.7l0.5,-1l0.4,-1.7c0.2,0.6 0.3,1.2 0.5,1.8l-1.1,3.3l0,1.1l1.4,-2.3c0.3,2 0.5,4.1 0.6,6.1l-10.2,0l-0.2,-0.9l1.2,-0.9l0.2,-0.6l0.5,-0.4l1.4,-0.2l0.1,-0.6l-1.2,-0.6zm2.3,-27.2l2.8,0.1l0.7,0.8l-0.3,1.2l3.9,2.4l0.8,-0.1l4.9,5.7l2,-0.7c3.2,6.9 4.9,14.5 5,22.1l-11.6,0c0,-3 -0.4,-5.9 -1.1,-8.8l0.5,-0.7l0.7,-3.7l-0.5,-3.9l-1.4,-4.5l-3.2,-4.7l0.8,0.4l0.4,-0.4l-2.6,-1.8l-0.2,0.6l2.6,3.7l1.5,3l1,3l0.3,2l0.5,3.4l-1,0.1c0,0 -1.1,-2.1 -1.5,-3l0.5,-0.8l-1,-1.4l0,-1.3l-0.7,-0.9l-0.9,0.1c-0.3,-0.6 -0.6,-1.2 -1,-1.7l0.6,0.3l0.2,-0.2l-0.3,-0.7l0.8,-0.4l-0.3,-0.4l-1.1,0.4l0.4,-1.8l-0.7,-0.4l-0.6,1.4c-1.3,-1.9 -2.7,-3.7 -4.2,-5.4l3.3,-3zm14.8,-14.9c12,12.5 18.7,29.1 18.9,46.4l-11.6,0c-0.1,-8.6 -2.1,-17.1 -6,-24.8l0.1,-0.2l0.8,0.4l0.2,-0.6l-2.1,-3.6l-2.5,-3.4l-2.9,-2.4c-1,-1.2 -2,-2.4 -3.1,-3.6l8.2,-8.2zm-34.2,68.9l0,0l0,0l0,0m-15.2,48.7c39,0 70.6,-31.7 70.5,-70.7c0,-36.2 -27.4,-66.5 -63.4,-70.2l-0.1,0.4c-0.1,0.7 -0.3,1.3 -0.4,1.9c15.5,1.5 30,8.3 41.1,19.2l-7.8,7.8l0.3,-1.4l-1,-0.5l-1.3,0.1l0.3,-0.9l-0.9,-3.2l-1.9,-2.1l-6.1,-3.2l-0.5,0.6l-1.1,0.3c2.1,3 3.2,6.6 3.2,10.2c0,0.5 0,0.9 0,1.4l3,3.8l-1.4,0.3l0.9,1.4l-2.7,2.7l-1.1,-2c-0.5,1.4 -1.2,2.8 -2,4l0.6,0.5l-8.3,8.2c-0.5,-0.5 -1,-0.9 -1.5,-1.4c-0.8,0.4 -1.6,0.7 -2.4,1l0.7,0.5l-0.4,0.4l-1,0.5l-0.4,1l-0.6,-0.6l-1.7,0.6l0.5,0.8l1.2,-0.3l0.8,0.1l0.1,-0.4l0.6,-0.3l0.2,-0.3l1.1,-0.3l0.8,0l0.5,0.4l-3.2,3.3l-0.2,-0.3l-3.4,0.6l-0.8,0.8l-0.7,0.1l2.1,-2l-0.8,-0.4l-2,2.6l0.6,-0.1l0,1l0.7,0.3l0.1,1l-1.2,-0.2l-1.2,0.2l-3,-1.5c0,0 -0.2,8 -0.2,12c7,2.4 14.5,5.8 14.5,14.8c0.1,3.8 -1.9,7.4 -5.1,9.5l0,0l-0.2,0.1l0,0l-0.2,0.2c-2.8,1.9 -6.5,2.9 -9.7,3.9l-0.1,6.3c5.1,2.5 11.2,6.2 10.6,16.6c-0.1,2.6 -1.1,3.3 -1.9,3.5l0,0c-3,0.7 -6.1,1.2 -9.1,1.4c0,0.8 0,1.6 0,2.3c13.2,-0.9 25.6,-6.4 35.2,-15.5l8.2,8.2c-26.3,25.4 -68,25.4 -94.4,0.2l8.2,-8.2c9.5,8.9 21.8,14.3 34.8,15.3c0,-0.7 0,-1.5 0,-2.3c-12.4,-1 -24,-6.1 -33,-14.7l2.1,-2.2l3,0.3l1.6,-1.7l4.2,0.2l0.6,-1.5l-0.2,-0.6c6.2,4.7 13.6,7.7 21.4,8.5c0,-0.9 0,-1.7 0,-2.3c-8.6,-1 -16.6,-4.6 -23,-10.5l8.2,-8.2c2,1.8 4.2,3.3 6.7,4.5c0.2,-0.8 0.4,-1.5 0.8,-2.2c-2.1,-1.1 -4.1,-2.4 -5.8,-3.9l8.2,-8.2c1.3,1 2.8,1.9 4.3,2.4c0,-0.8 0,-1.7 0,-2.5c-1,-0.4 -1.9,-1 -2.7,-1.6l2.3,-2.3c-0.8,-0.2 -1.6,-0.5 -2.4,-0.8l-1.6,1.6c-0.8,-0.9 -1.5,-1.9 -2,-2.9c-1.4,-0.6 -2.8,-1.3 -4.1,-2.2c-4.8,-2.9 -7.7,-8.2 -7.6,-13.9c-0.1,-3.8 1,-7.6 3.3,-10.6l-8.2,-8.2c6,-5.8 13.7,-9.5 21.9,-10.8c0,-0.8 0,-1.6 0,-2.3c-8.8,1.3 -17.1,5.3 -23.5,11.5l-1.4,-1.4c-0.3,0.5 -0.7,1.2 -1.1,2.1l0.9,0.9c-7.3,7.7 -11.4,17.9 -11.6,28.5l-11.7,0c0.2,-13.7 5.5,-26.8 15,-36.8l3.7,3.7c0.2,0 0.3,0 0.5,0c0.7,-0.1 1.5,-0.3 2.1,-0.6l-4.7,-4.7c2.5,-2.4 5.2,-4.6 8.1,-6.5c0.2,-0.6 0.3,-1.2 0.6,-1.7c0.5,-0.8 1.1,-1.6 1.8,-2.4c-4.4,2.4 -8.4,5.4 -12,8.9l-8.2,-8.2c11,-10.7 25.3,-17.4 40.7,-19c0,-0.3 -0.1,-0.5 -0.1,-0.5c-0.1,-0.6 -0.2,-1.1 -0.3,-1.8c-38.9,4 -67,38.7 -62.9,77.5c3.8,35.9 34,63.2 70.1,63.1m34.7,-122.1l-0.7,-1.1l-1.5,-0.8l-1.2,0.9l1.5,0.8l1.7,1.2l0.2,-1zm-7,32.8l0.1,0.9l2,-0.6l0.6,-1.2l-1.4,-1.8l0.7,-1.1l1.9,1.3l0.3,-0.3l-0.4,-0.3l-0.4,-0.8l0.8,-0.4l-0.8,-1l-1.8,0.9l-0.6,1.1l-0.4,1l0.8,1.3l-0.3,0.6l-1.1,0.4zm-83.8,52l0.1,-0.5l-1,-2.3l-1.2,-0.5l2.1,3.3zm47.3,-43.6c0,2 1.2,3.3 3.3,4.5c0,0 0,-0.3 0,-0.9l-1.3,-1.4l0.7,-1.3l0.6,-0.2c-0.1,-2.3 -0.1,-4.8 -0.1,-5.2l-0.1,0c-2,1.2 -3,2.6 -3.1,4.5" class="st0" id="path642"/>
    </g>
    <g id="g644">
     <path fill="#009CDE" d="m106.3,124.8c3.6,1.8 7,4.4 8.4,9.2c0.6,-8 -3.9,-11.4 -8.3,-13.8l-0.1,4.6" class="st0" id="path646"/>
    </g>
    <g id="g648">
     <path fill="#009CDE" d="m130.5,43.7c0,-7.3 -5.3,-15.3 -18.2,-18.1c-1.3,-0.2 -2.6,-0.4 -3.9,-0.5c0,1.1 -0.1,3.6 -0.1,3.6c0,0.8 -0.1,3.7 -0.1,4.3c0.8,0.1 1.7,0.2 2.5,0.3c7.5,1.8 10.2,6.1 10.2,10.3c0,6.9 -5.9,9.5 -13.1,11.5l-2.4,0.6c-2.2,0.5 -4.5,1.1 -6.7,1.7c-0.8,0.2 -1.6,0.4 -2.4,0.7c-8,2.4 -14.9,6.3 -14.9,16.2s7.9,13.5 15.6,15.9c0,-2.8 -0.1,-5.7 -0.2,-8.5c-3.5,-1.6 -5.8,-3.7 -5.8,-7.2s2.2,-5.5 5.5,-7c0.7,-0.3 1.5,-0.6 2.4,-0.9c1.9,-0.7 4.1,-1.2 6.3,-1.8l2.4,-0.6c10.8,-2.6 23,-6 22.9,-20.5" class="st0" id="path650"/>
    </g>
    <g id="g652">
     <path fill="#009CDE" d="m91.6,113c0,4 2.9,6.1 5.8,7.8c0,-0.7 -0.1,-6.8 -0.1,-6.9c0.1,-1.2 1.2,-2 2.2,-2.4c1.5,-0.7 3.1,-1.3 4.7,-1.8c0.9,-0.3 1.6,-0.6 2.4,-0.8c5.9,-1.8 12.7,-4 12.7,-11.2s-5.8,-10.1 -12.2,-12.3c-0.1,2.3 -0.1,5.6 -0.2,7.9c2.7,1 4.5,2.3 4.5,4.4c0,2.6 -2.7,4 -4.7,4.8c-0.8,0.3 -2,0.7 -2.4,0.8c-1.6,0.5 -3.2,1 -4.8,1.6c-0.8,0.3 -1.6,0.6 -2.4,1c-2.6,1.4 -5.5,3.5 -5.5,7.1" class="st0" id="path654"/>
    </g>
    <g id="g656">
     <path fill="#009CDE" d="m95.6,26.2c-2.4,0.8 -4.8,1.7 -7.1,2.9c-2.5,0.8 -6.1,1 -9.8,5c-1.2,1.4 -2.3,2.9 -3.4,4.4c-1.1,1.6 -1.2,4.2 -2,5.5c-1.2,2 -0.9,3.2 -0.9,3.2l0,0c-0.2,0.9 -0.7,1.8 -1.3,2.5c-1.2,1.4 -3,2.1 -4.8,1.8c1.7,0.8 4,-0.3 4,-0.3c-0.4,1.1 -0.7,2.2 -0.9,3.3c1.9,-4.3 3.6,-5.8 4.2,-6.3c0.8,0.2 2.5,0.1 5.6,-1.7c3.5,-2 8.8,-5.3 10.3,-7.4c1.6,-2.1 3.7,-3.8 6.2,-4.7c0,-3 -0.1,-5.8 -0.1,-8.2m-14.8,13.3l-1.8,0.4l2.2,-3.6l2.5,0.1l-2.9,3.1" class="st0" id="path658"/>
    </g>
    <g id="g660">
     <path fill="#009CDE" d="m102.9,112.5c-0.3,0.1 -1.2,0.5 -1.8,0.7s-1.3,0.5 -1.3,0.7c0,0 0.6,30.8 0.6,31.4c0,6.3 3.2,6.4 3.2,0c0,-0.4 0.7,-33.3 0.7,-33.3s-0.9,0.3 -1.4,0.5" class="st0" id="path662"/>
    </g>
    <g id="g664">
     <path fill="#009CDE" d="m99.5,102.3c1,-0.3 2,-0.7 2.9,-0.9c0.7,-0.2 1.3,-0.4 2,-0.6c0,-1.9 0.6,-28.7 0.7,-33.5c-2.1,0.5 -4.2,1.1 -6.2,1.8c0.1,3.6 0.6,30.3 0.6,33.2" class="st0" id="path666"/>
    </g>
    <g id="g668">
     <path fill="#009CDE" d="m102.2,0c-9,0 -5.2,13.4 -4.5,17.8c0,0.2 0.7,30.3 0.9,37.2c1.4,-0.4 2.7,-0.7 4.1,-1l2.7,-0.7c0.1,-6.7 0.8,-35.4 0.8,-35.6c0.6,-4.6 5.3,-17.7 -4,-17.7" class="st0" id="path670"/>
    </g>
   </g>
  </g>
 </g>
</svg>